SplineFontDB: 3.0
FontName: Astronomical-Book-of-Enoch-4Q208
FullName: Astronomical Book of Enoch 4Q208
FamilyName: Astronomical-Book-of-Enoch-4Q208
Weight: DemiBold
Copyright: Created by FontForge 20170731 at Thu Dec 02 10:22:24 2021: Astronomical-Book-of-Enoch-4Q208 : \nBy Florin Ciprian Bodin (C) Copyright 2021-2022 International Institute of Biblical Archaeology and Linguistic Reasearch "Beit Dina" (www.beitdina.net);
Version: 0.0.3
ItalicAngle: 0
UnderlinePosition: -150
UnderlineWidth: 21
Ascent: 819
Descent: 205
InvalidEm: 0
sfntRevision: 0x0000199a
woffMajor: 0
woffMinor: 1
LayerCount: 2
Layer: 0 0 "Back" 1
Layer: 1 0 "Fore" 0
XUID: [1021 501 -296948436 24469]
BaseHoriz: 0
FSType: 0
OS2Version: 0
OS2_WeightWidthSlopeOnly: 0
OS2_UseTypoMetrics: 0
CreationTime: 1638431714
ModificationTime: 1638448482
PfmFamily: 17
TTFWeight: 1024
TTFWidth: 5
LineGap: 92
VLineGap: 92
Panose: 1 1 3 1 1 1 1 1 1 1
OS2TypoAscent: 0
OS2TypoAOffset: 1
OS2TypoDescent: 0
OS2TypoDOffset: 1
OS2TypoLinegap: 92
OS2WinAscent: 0
OS2WinAOffset: 1
OS2WinDescent: 0
OS2WinDOffset: 1
HheadAscent: 0
HheadAOffset: 1
HheadDescent: 0
HheadDOffset: 1
OS2Vendor: 'PfEd'
MarkAttachClasses: 1
DEI: 91125
LangName: 1033 "" "" "" "Astronomical-Book-of-Enoch-4Q208" "" "" "" "" "" "http://www.beitdina.net/pub/" "" "" "" "Open SIL License" "http://scripts.sil.org/pub/OFL/BundlingWhenSelling"
LangName: 1037 "" "" "" "" "" "" "" "" "" "" "" "" "" "" "" "" "" "" "David" "+BdAA +BdEA +BdIA +BdMA +BdQA +BdUA +BdYA +BdcA +BdgA +BdkA +BdsA +BdoA +BdwA +Bd4A +Bd0A +BeAA +Bd8A +BeEA +BeIA +BeQA +BeMA +BeYA +BeUA +BecA +BegA +BekA +BeoACgXQ +BdEA +BdIA +BdMA +BdQA +BdUA +BdYA +BdcA +BdgA +BdkA +BdsA +BdoA +BdwA +Bd4A +Bd0A +BeAA +Bd8A +BeEA +BeIA +BeQA +BeMA +BeYA +BeUA +BecA +BegA +BekA +BeoA"
Encoding: Original
UnicodeInterp: none
NameList: AGL For New Fonts
DisplaySize: -96
AntiAlias: 1
FitToEm: 0
WinInfo: 0 8 5
BeginPrivate: 0
EndPrivate

StartChar: .notdef
Encoding: 0 0 0
Width: 512
Flags: W
HStem: 68 1<243 245> 889 1<244.022 250.562>
VStem: 109.625 1<531.299 537.663> 434 1<469.068 497.825>
LayerCount: 2
Fore
SplineSet
243 68 m 0
 242 68 242 68 241 69 c 0
 240 69 240 70 239 71 c 0
 236 74 231 81 219 91 c 2
 214 100 209 113 204 126 c 0
 199 139 194 152 188 159 c 0
 130 225 92 281 68 355 c 0
 51 404 43 467 50 532 c 0
 56 588 72 641 98 687 c 0
 129 744 160 796 192 836 c 0
 205 854 220 870 238 885 c 0
 243 890 246 891 250 890 c 0
 254 889 258 883 262 877 c 0
 272 862 286 845 299 828 c 0
 313 810 320 789 329 773 c 0
 355 732 378 690 397 649 c 0
 418 602 435 544 435 480 c 0
 433 402 405 329 369 264 c 1
 368 264 l 1
 359 247 342 224 326 200 c 0
 309 176 293 152 284 132 c 0
 280 122 280 117 279 111 c 0
 278 106 275 101 267 92 c 0
 256 81 251 74 247 70 c 0
 247 70 246 69 245 68 c 0
 244 68 244 68 243 68 c 0
243 69 m 0
 243 69 244 69 245 69 c 0
 245 70 246 70 247 71 c 0
 250 75 255 81 266 92 c 0
 275 101 277 106 278 112 c 0
 279 117 279 123 283 133 c 0
 293 152 309 177 325 201 c 0
 341 224 358 247 368 264 c 0
 404 330 432 402 434 480 c 0
 434 544 417 601 396 648 c 0
 377 689 354 731 328 773 c 0
 319 789 312 810 298 827 c 0
 285 844 271 861 261 876 c 0
 257 883 254 888 249 889 c 0
 246 890 243 889 239 884 c 2
 221 869 206 853 192 836 c 0
 161 795 130 743 99 686 c 0
 73 640 57 588 51 532 c 0
 44 467 52 405 69 355 c 0
 93 281 131 225 188 160 c 1
 194 152 199.94974 139.42534 205.12495 126.43755 c 0
 210.28476 113.48841 215.17215 100.27142 219.9062 91.4063 c 0
 231.36697 81.9273 236.50477 74.935895 239.5937 71.3438 c 0
 240.36808 70.443276 241.00375 69.758716 241.56245 69.31255 c 0
 242.12115 68.866384 243 69 243 69 c 0
243.625 182.03125 m 1
 243.1875 182.5625 l 2
 196.62531 239.82865 144.95799 297.40709 124.1875 363.21875 c 1
 124.1875 363.24995 l 1
 108.37234 415.88077 103.73667 480.35292 109.625 533.81245 c 0
 114.2654 576.07818 126.58535 615.91708 145.125 652.5937 c 0
 171.28034 704.3363 195.96415 773.63634 243.125 810.7812 c 2
 243.53125 811.0937 l 1
 243.84375 810.7187 l 2
 292.60232 751.28241 323.80221 689.81517 357.59375 613.7187 c 0
 374.8783 570.53877 386.01704 520.94439 382.875 479.3125 c 0
 377.58167 421.04269 351.78427 360.04804 321.0625 302.5625 c 0
 298.61553 260.56048 265.60385 218.41339 244 182.625 c 2
 243.625 182.03125 l 1
243.5313 183.78125 m 1
 265.19286 219.52659 297.92705 261.40939 320.18755 303.0625 c 0
 350.87506 360.48395 376.59629 421.34349 381.87505 479.375 c 0
 381.87582 479.3852 381.87428 479.3961 381.87505 479.4062 c 0
 384.99082 520.78654 373.8874 570.25696 356.6563 613.31245 c 0
 356.6523 613.32145 356.6603 613.33475 356.6563 613.34365 c 0
 322.9571 689.23012 291.85751 750.48248 243.375 809.6875 c 1
 196.80348 772.73785 172.16288 703.85194 146.03125 652.15625 c 0
 127.54276 615.58081 115.2519 575.86154 110.625 533.71875 c 0
 104.75251 480.40304 109.39043 415.99787 125.15625 363.53125 c 0
 145.76775 298.22335 197.0654 240.89198 243.5313 183.78125 c 1
EndSplineSet
Validated: 37
EndChar

StartChar: "+BdAFtwXcBbAF4wAA"
Encoding: 4 1488 4
Width: 1024
Flags: W
LayerCount: 2
Fore
SplineSet
561 101 m 0
 538 133 508.255859375 222.538085938 492.126953125 310.15234375 c 0
 481.471502632 368.036816213 476.709227252 388.434635708 455.230719033 388.434635708 c 0
 444.307946822 388.434635708 429.06206809 383.159407293 406.51953125 374.856445312 c 0
 310.182726416 339.373657096 273.631239985 326.150531566 249.335181826 326.150531566 c 0
 235.341304429 326.150531566 225.413105079 330.537238419 210.46875 337.583984375 c 0
 162.938483546 359.997204758 134.193642806 406.001639804 134.193642806 458.126231187 c 0
 134.193642806 462.198021334 134.369049173 466.307157815 134.724609375 470.4453125 c 0
 138.025390625 508.854492188 144.41015625 516.927734375 177.46875 524.491210938 c 0
 198.842773438 529.381835938 233.513671875 549.700195312 254.514648438 569.643554688 c 0
 275.515625 589.586914062 305.654296875 605.904296875 321.490234375 605.904296875 c 0
 345.877520979 605.904296875 358.525663668 614.528286362 358.525663668 628.059438554 c 0
 358.525663668 638.35625742 351.201410547 651.494703127 336.15234375 665.836914062 c 0
 302.387016722 698.015940568 285.379269527 735.243670154 285.379269527 764.082413566 c 0
 285.379269527 792.002514661 301.320729711 812.059570312 333.430664062 812.059570312 c 0
 369.017578125 812.059570312 477.2421875 710.926757812 497.826171875 658.436523438 c 0
 505.763671875 638.1953125 522.770507812 610.897460938 535.619140625 597.774414062 c 0
 546.549553593 586.610943248 553.862139423 581.325877517 562.137831853 581.325877517 c 0
 568.773219846 581.325877517 576.027761323 584.723494002 586.262695312 591.212890625 c 0
 611.30078125 607.087890625 671.311523438 683.602539062 710.673828125 749.838867188 c 0
 718.719149803 763.37666298 723.5893306 769.719881469 731.275332497 769.719881469 c 0
 737.716951733 769.719881469 746.136424763 765.264357377 760.060546875 756.854492188 c 0
 806.278320312 728.939453125 850.85546875 658.892578125 859.16015625 601.133789062 c 0
 860.577060047 591.28016027 861.445229437 583.117277295 861.445229437 575.864552587 c 0
 861.445229437 551.260283501 851.453905978 537.130566672 819 503 c 0
 793.072265625 475.732421875 740.34765625 431.189453125 701.834960938 404.016601562 c 0
 642.813476562 362.373046875 631.811523438 348.36328125 631.811523438 314.849609375 c 0
 631.811523438 292.98046875 640.774414062 259.650390625 651.728515625 240.783203125 c 0
 661.392323287 224.137637585 665.837897186 210.285274556 665.837897186 191.416460749 c 0
 665.837897186 179.677939638 664.117354679 165.997933133 660.862304688 148.49609375 c 0
 651.271484375 96.9306640625 645.920898438 90.0576171875 612.5078125 86.3779296875 c 0
 609.726219518 86.0715862829 606.924640205 85.9254874138 604.13819079 85.9254874138 c 0
 585.712866051 85.9254874138 567.949093312 92.3136333596 561 101 c 0
EndSplineSet
Validated: 513
EndChar

StartChar: "+BdEFtQW8BeoA"
Encoding: 5 1489 5
Width: 1024
Flags: W
HStem: 47.5439 627.227<675.073 796.992> 87 182.368<358.522 641.219> 95 211<158.718 437.02> 410.598 216.308<453.074 595.795>
VStem: 669.423 182.664<299.719 400.182>
LayerCount: 2
Fore
SplineSet
684 63 m 0x88
 666 79 634 84 508 87 c 0x48
 445 88 381 93 322 95 c 0
 278 96 236 97 199 105 c 0
 173 108 152 118 136 133 c 0
 118 149 108 172 104 199 c 0
 103.577378085 202.803597239 103.373056404 206.54765805 103.373056404 210.226591011 c 0
 103.373056404 232.662723267 110.972235605 252.676605464 123 269 c 0
 140 291 167 305 197 306 c 0x28
 228 306 282 302 324 297 c 0
 378 287 429 286 478 279 c 0
 508.280167086 275.050412989 538.560334172 269.36757736 567.414331211 269.36757736 c 0
 582.3937734 269.36757736 596.988844577 270.899174022 611 275 c 0
 626 280 639 288 649 299 c 0
 662.407154888 313.747870377 669.423134587 332.689949471 669.423134587 351.095574564 c 0
 669.423134587 373.874582407 658.67688832 395.831913584 636 408 c 1
 622.686533479 409.901923789 608.569219382 410.598076211 594.922105065 410.598076211 c 0
 587.04293994 410.598076211 579.320508076 410.366025404 572 410 c 0
 551 410 532 410 512 411 c 0
 491 412 472 415 450 420 c 0
 426 425 405 432 386 443 c 0
 366 454 349 468 331 485 c 0
 316 500 306 516 294 537 c 0
 284 559 275 581 267 604 c 0
 257.725566723 633.678186487 251.89173795 663.356372973 251.89173795 692.236818037 c 0
 251.89173795 694.496221847 251.927443328 696.750743159 252 699 c 0
 253 727 258 773 273 800 c 0
 283 815 298 822 313 824 c 0
 315.145491716 824.186564497 317.29968501 824.277411637 319.453651151 824.277411637 c 0
 340.39053215 824.277411637 361.305951479 815.694048521 374 803 c 0
 398 779 407 716 449 654 c 0
 461.21875 635.9375 479.08203125 626.90625 504.988769531 626.90625 c 0x58
 527.84765625 626.90625 556.96875 633.9375 594 648 c 0
 632.266529209 663.654489222 672.802160575 674.770774133 712.317853795 674.770774133 c 0
 718.238486723 674.770774133 724.136223055 674.521224617 730 674 c 0
 783 666 816 647 836 619 c 0
 853 596 860 566 860 532 c 0
 860 510 858 486 853 461 c 0
 852.369577546 452.725705295 852.086908504 444.321003061 852.086908504 435.813297242 c 0
 852.086908504 361.913370378 873.414476538 280.241754276 873.414476538 208.758506228 c 0
 873.414476538 184.039853377 870.864228763 160.539476464 864 139 c 1
 860 109 842 84 819 68 c 0
 800.278538328 55.5190255522 770.292375601 47.5439315266 741.640234905 47.5439315266 c 0
 719.787737686 47.5439315266 698.711221308 52.1829255089 684 63 c 0x88
EndSplineSet
Validated: 513
EndChar

StartChar: "+BdIFtwW8Bd4FsAXc"
Encoding: 6 1490 6
Width: 791
Flags: W
HStem: 414.972 74.0547<344.419 421.986>
VStem: 444.67 201.978<491.126 572.888>
LayerCount: 2
Fore
SplineSet
501 721 m 0
 533 691 547 682 584 645 c 0
 602 627 629 565 641 531 c 0
 644.896412424 519.310762729 646.647764399 508.850249404 646.647764399 499.59441676 c 0
 646.647764399 462.558229581 618.606668013 444.810322289 587.748076478 444.810322289 c 0
 572.878918627 444.810322289 557.355601172 448.930990959 544 457 c 0
 538 461 528 453 526 446 c 1
 534 435 545 423 552 414 c 0
 628 318 655 286 711 197 c 0
 718.021132124 186.149159445 725.042264247 177.742763335 725.042264247 169.700476226 c 0
 725.042264247 165.142920938 722.787444184 160.702298399 717 156 c 0
 709.433240168 149.273991261 697.62530594 131.94504653 683.953378653 131.94504653 c 0
 681.363742428 131.94504653 678.707231429 132.566759832 676 134 c 0
 624 160 643 150 633 166 c 0
 568 270 479 374 461 401 c 1
 452.715538751 411.493650916 427.959325936 414.971555794 401.89353795 414.971555794 c 0
 380.764124217 414.971555794 358.774185252 412.6862155 344 410 c 0
 298 402 246 376 129 337 c 0
 129 337 96 362 96 364 c 0
 92.6890137368 379.72718475 82.5263837015 406.416999536 82.5263837015 421.950888407 c 0
 82.5263837015 425.183478931 82.9664793948 427.93295879 84 430 c 0
 129 511 140 493 222 529 c 0
 222 529 264 526 327 517 c 0
 332.425490893 516.095751518 403.264207183 489.026212877 418.998411448 489.026212877 c 0
 420.66451758 489.026212877 421.712745446 489.329739375 422 490 c 0
 432 511 441 534 444 552 c 0
 444.454406358 554.612836556 444.670064275 557.161146506 444.670064275 559.652626693 c 0
 444.670064275 601.02462059 385.204788874 626.726438145 372 672 c 0
 367.823085464 685.923048454 365.58468371 697.907584126 365.58468371 709.553014861 c 0
 365.58468371 723 368.569219382 735.994845224 375 751 c 0
 377 756 390 774 396 775 c 0
 420 778 433 778 420 778 c 0
 420 778 452 768 462 760 c 0
 469 754 489 732 501 721 c 0
EndSplineSet
Validated: 517
EndChar

StartChar: "+BdMFtQXcBbAF6gW8"
Encoding: 7 1491 7
Width: 800
Flags: W
HStem: 491.174 143.56<462.937 538.613>
VStem: 349.105 118.143<712.918 824.621> 549.069 150.571<648.023 743.744> 614.19 127.635<239.756 412.224>
LayerCount: 2
Fore
SplineSet
651.09375 182.297851562 m 4xd0
 640.469726562 226.811523438 634.94140625 246.866210938 625.110351562 276.565429688 c 4
 620.791015625 289.612304688 616.017578125 306.708007812 614.190429688 315.674804688 c 4xd0
 612.405273438 324.4375 614.93706746 375.612203361 612.93815 381.2522 c 0
 602.55039 410.56153 589.513671875 407.112304688 574.723632812 435.504882812 c 4
 564.021484375 456.051757812 549.983398438 472.803710938 529.453125 480.618164062 c 4
 510.6796875 487.59375 489.977539062 490.557617188 476.766601562 491.173828125 c 4
 437.129882812 490.916015625 397.8046875 489.637695312 359.065429688 488.53125 c 4
 321.725585938 487.463867188 284.930664062 486.556640625 248.92578125 486.876953125 c 4
 233.762695312 487.102539062 216.909179688 484.364257812 205.34375 489.69140625 c 4
 201.04296875 491.962890625 196.877929688 497.42578125 196.0625 501.865234375 c 4
 195.676757812 503.966796875 194.993164062 505.455078125 194.544921875 505.171875 c 4
 193.274414062 504.370117188 192.413085938 517.82421875 193.379882812 523.366210938 c 4
 193.856445312 526.09765625 194.322265625 527.587890625 194.415039062 526.676757812 c 4
 194.5078125 525.766601562 196.997070312 532.158203125 199.946289062 540.880859375 c 4
 206.5703125 559.572265625 217.111328125 575.115234375 228.985351562 589.198242188 c 4
 244.083984375 607.107421875 261.336914062 622.657226562 275.431640625 639.326171875 c 4
 289.345703125 655.791015625 305.670898438 674.984375 315.168945312 695.666015625 c 4
 320.811523438 708.016601562 325.80078125 713.627929688 337.393554688 720.66015625 c 4
 350.184570312 728.419921875 349.615234375 726.533203125 349.10546875 759.40234375 c 4
 348.864257812 774.913085938 349.0390625 790.415039062 349.494140625 793.8515625 c 4
 349.948242188 797.288085938 352.603515625 805.731445312 355.393554688 812.615234375 c 4
 358.184570312 819.498046875 362.086914062 829.848632812 364.065429688 835.616210938 c 4
 371.57421875 857.497070312 373.471679688 861.271484375 378.768554688 864.865234375 c 4
 381.453125 866.686523438 385.256835938 869.567382812 387.22265625 871.265625 c 4
 390.623046875 874.206054688 391.250976562 874.338867188 400.196289062 874.025390625 c 4
 409.427734375 873.701171875 409.66796875 873.759765625 413.5390625 877.228515625 c 4
 415.70703125 879.171875 419.202148438 881.090820312 421.305664062 881.494140625 c 4
 426.23828125 882.438476562 438.305664062 881.115234375 442.9921875 879.115234375 c 4
 448.625976562 876.711914062 461.606445312 877.083007812 465.922851562 879.770507812 c 4
 468.98046875 881.673828125 471.373046875 881.973632812 483.50390625 881.973632812 c 6
 497.544921875 881.973632812 l 5
 499.686523438 878.38671875 l 6
 502.348632812 873.927734375 502.560546875 863.62109375 500.182617188 854.249023438 c 4
 499.272460938 850.663085938 495.411132812 839.6640625 491.602539062 829.806640625 c 4
 487.793945312 819.950195312 483.8828125 808.408203125 482.911132812 804.159179688 c 4
 481.939453125 799.91015625 480.186523438 792.595703125 479.014648438 787.90625 c 4
 477.842773438 783.216796875 476.202148438 775.4140625 475.3671875 770.56640625 c 4
 474.532226562 765.719726562 472.364257812 758.297851562 470.548828125 754.073242188 c 4
 467.889648438 747.885742188 467.248046875 744.87890625 467.248046875 738.594726562 c 4
 467.248046875 727.69140625 458.114257812 694.30078125 451.451171875 680.8515625 c 4
 450.033203125 677.98828125 448.873046875 674.706054688 448.873046875 673.55859375 c 4
 448.873046875 671.18359375 473.64453125 644.86328125 481.65234375 638.729492188 c 4
 486.001953125 635.397460938 487.755859375 634.733398438 492.198242188 634.733398438 c 4
 495.129882812 634.733398438 502.47265625 633.974609375 508.516601562 633.047851562 c 4
 519.986328125 631.288085938 520.572265625 631.41015625 522.7734375 636.01953125 c 4
 523.458007812 637.453125 527.241210938 640.309570312 531.302734375 642.458984375 c 4
 535.317382812 644.583984375 538.834960938 647.067382812 539.120117188 647.978515625 c 4
 539.405273438 648.888671875 538.67578125 652.862304688 537.5 656.807617188 c 4
 533.116210938 671.514648438 535.459960938 683.063476562 544.056640625 689.112304688 c 4
 546.444335938 690.79296875 548.700195312 692.970703125 549.069335938 693.954101562 c 4
 549.438476562 694.936523438 549.157226562 700.266601562 548.444335938 705.799804688 c 4
 547.651367188 711.955078125 547.060546875 734.006835938 546.921875 762.6171875 c 4
 546.69921875 808.264648438 546.745117188 809.413085938 548.85546875 810.91015625 c 4
 570.778320312 826.459960938 575.614257812 828.44140625 591.6328125 828.44140625 c 4
 602.893554688 828.44140625 603.19921875 828.373046875 612.169921875 823.806640625 c 4
 624.551757812 817.50390625 629.989257812 812.278320312 648.0078125 789.364257812 c 4
 661.232421875 772.548828125 664.981445312 766.8515625 673.943359375 749.95703125 c 4
 679.705078125 739.094726562 685.854492188 726.6484375 687.608398438 722.297851562 c 4
 689.361328125 717.947265625 692.03125 712.235351562 693.541015625 709.604492188 c 4
 697.522460938 702.666015625 699.640625 693.040039062 699.640625 681.889648438 c 4xe0
 699.640625 671.166015625 700.587890625 668.262695312 704.58984375 666.708984375 c 4
 708.197265625 665.30859375 709.635742188 660.892578125 709.14453125 652.724609375 c 4
 708.8125 647.2109375 708.073242188 644.944335938 705.3359375 641.05078125 c 4
 700.703125 634.46484375 700.23828125 631.708984375 702.2421875 622.71484375 c 4
 705.123046875 609.77734375 703.814453125 566.078125 700.48046875 563.916992188 c 4
 699.721679688 563.42578125 697.293945312 563.015625 695.084960938 563.005859375 c 4
 692.232421875 562.993164062 690.74609375 562.37109375 689.951171875 560.854492188 c 4
 687.780273438 556.712890625 689.365234375 520.060546875 691.823242188 517.55078125 c 4
 692.774414062 516.579101562 696.540039062 516.221679688 704.250976562 516.370117188 c 4
 710.3359375 516.487304688 716.854492188 516.072265625 718.73828125 515.447265625 c 4
 725.069335938 513.348632812 727.14453125 507.487304688 732 478 c 4
 737.58203125 444.094726562 738.995117188 426.323242188 741.825195312 354.379882812 c 4
 743.912109375 301.345703125 747.66796875 273.063476562 759.490234375 221.376953125 c 4
 761.572265625 212.271484375 764.815429688 197.122070312 766.6953125 187.712890625 c 4
 768.575195312 178.303710938 770.96484375 166.404296875 772.00390625 161.270507812 c 4
 773.04296875 156.13671875 774.171875 152.66015625 774.512695312 153.543945312 c 4
 774.853515625 154.428710938 775.260742188 152.916992188 775.416015625 150.185546875 c 4
 775.844726562 142.668945312 775.51953125 139.965820312 774.073242188 139.053710938 c 4
 772.745117188 138.21484375 771.5625 111.041992188 771.971679688 90.759765625 c 4
 771.299804688 85.8828125 769.201171875 78.91796875 766.325195312 71.931640625 c 4
 761.708984375 60.720703125 755.08984375 49.4521484375 749.145507812 46.6630859375 c 4
 738.805664062 42.8291015625 730.603515625 40.283203125 722.575195312 39.916015625 c 4
 714.932617188 39.56640625 707.448242188 41.1904296875 698.427734375 45.5546875 c 4
 685.54296875 54.1845703125 678.581054688 69.2509765625 674.42578125 83.185546875 c 4
 670.892578125 95.1904296875 668.831054688 107.654296875 666.208007812 118.776367188 c 4
 661.231445312 139.873046875 656.177734375 161 651.09375 182.297851562 c 4xd0
EndSplineSet
Validated: 545
EndChar

StartChar: "+BdQFtQXU"
Encoding: 8 1492 8
Width: 800
Flags: W
HStem: 542.008 187.697<106.675 309.31>
VStem: 516.268 96.3942<665.074 714.805> 615.318 83.6824<308.173 409.516> 669 110.276<127.814 207.462>
LayerCount: 2
Fore
SplineSet
212 88 m 0xe0
 185.208695809 112.964624359 171.022926396 142.378260993 171.022926396 168.791232327 c 0
 171.022926396 185.756915889 176.875691589 201.484584866 189 214 c 0
 198 223 219 265 237 307 c 0
 285.390452953 425.507231721 309.886661651 484.278852805 309.886661651 513.413085411 c 0
 309.886661651 540.921195174 288.048644434 542.008 243.86592 542.008 c 0
 240.0752 542.008 236.12 542 232 542 c 0
 149 542 77 564 68 604 c 0
 67.4114378278 606.942810861 67.2077705784 609.962600707 67.2077705784 613.06692069 c 0
 67.2077705784 620.04431327 68.236673866 627.448742286 68.236673866 635.36594968 c 0
 68.236673866 641.880826904 67.5399784019 648.742918852 65 656 c 0
 58.0712472795 669.857505441 55.2913007298 681.936951095 55.2913007298 691.78205042 c 0
 55.2913007298 694.725096018 55.5397228268 697.468475547 56 700 c 0
 60 717 77 726 103 730 c 0
 115.44631199 731.508643878 129.741879139 732.021534977 145.296537173 732.021534977 c 0
 170.983309978 732.021534977 200.103726531 730.622839031 230 730 c 0
 238.236320726 729.794091982 246.05925986 729.704778772 253.493916473 729.704778772 c 0
 302.172374511 729.704778772 334.205225489 733.533621228 356.637539527 733.533621228 c 0
 364.056963704 733.533621228 370.426149773 733.114770045 376 732 c 0
 398 728 411 705 428 691 c 0
 452.805707234 671.831953501 469.347777642 662.516704757 483.001701322 662.516704757 c 0
 493.566907388 662.516704757 502.402853617 668.094151837 512 679 c 0
 514.96198216 682.173552314 516.267772903 684.809961466 516.267772903 687.344860726 c 0
 516.267772903 696.791326552 498.133886452 704.828095708 480 734 c 0
 465.928586297 756.782288852 458.592025778 776.421646219 458.592025778 790.812096425 c 0
 458.592025778 797.897772265 460.370740511 803.710875149 464 808 c 0
 468 812 486 824 503 825 c 0
 503.789473684 825.052631579 504.578947368 825.077562327 505.36681732 825.077562327 c 0
 519.548476454 825.077562327 533.210526316 817 537 817 c 0
 554 817 609 768 633 726 c 0
 634.087979072 724.065814983 634.562188572 722.204697772 634.562188572 720.398982536 c 0
 634.562188572 708.127746198 612.661974223 698.415115523 612.661974223 685.716732448 c 0
 612.661974223 684.826467414 612.769618303 683.921526789 613 683 c 0
 620 656 634 615 644 591 c 0
 654 567 663 529 663 506 c 0
 663 483 671 447 681 425 c 0
 691 404 699 377 699 365 c 0xe0
 699 353 706 330 715 314 c 0
 723 298 742 265 756 240 c 0
 771.517241379 211.551724138 779.275862069 185.243757432 779.275862069 161.906392226 c 0
 779.275862069 140.124851367 772.517241379 120.931034483 759 105 c 2
 737 80 l 1
 707 110 l 2
 690 126 673 154 669 171 c 0xd0
 665 188 644 215 622 231 c 0
 595.81353193 249.269628886 582.607371513 267.539257772 582.607371513 284.002064535 c 0
 582.607371513 294.572330308 588.051653627 304.39772785 599 313 c 0
 609.809170007 321.45935044 615.317554097 330.58129912 615.317554097 343.68741683 c 0
 615.317554097 358.468797155 608.31097434 378.317979147 594 408 c 0
 574 448 566 454 536 454 c 0
 473 454 448 438 418 377 c 0
 402 344 380 305 368 289 c 0
 356 272 343 234 340 204 c 0
 336 174 325 144 317 137 c 0
 308 130 301 116 301 105 c 0
 301 70.3513683756 291.018288429 52.9438749185 272.718418185 52.9438749185 c 0
 257.744483048 52.9438749185 237.201216334 64.5988705471 212 88 c 0xe0
EndSplineSet
Validated: 513
EndChar

StartChar: "+BdUFtwXQBdUFvAAA"
Encoding: 9 1493 9
Width: 700
Flags: W
VStem: 333.664 115.336<123.909 426.642>
LayerCount: 2
Fore
SplineSet
354.82421875 125.360351562 m 0
 346.376953125 137.544921875 336.7421875 178.41015625 333.6640625 272.80078125 c 0
 328.553710938 429.546875 343.139648438 417.916015625 276.517578125 441.881835938 c 0
 248.537109375 451.947265625 205.979492188 452.408203125 201.266601562 478.17578125 c 0
 198.458984375 493.521484375 190.17578125 519.854492188 189.760742188 547.54296875 c 0
 189.388671875 572.348632812 196.6015625 598.241210938 198.877929688 618.295898438 c 0
 203.267578125 656.981445312 243.244140625 693.903320312 261.235351562 707.540039062 c 0
 280.223632812 721.932617188 298.655273438 744.844726562 302.194335938 758.456054688 c 0
 317.110351562 815.828125 356.393554688 813.21875 403.607421875 751.71875 c 0
 428.939453125 718.721679688 469.53125 646.469726562 475.998046875 595.986328125 c 0
 481.801757812 550.67578125 455.528320312 527.069335938 442.756835938 495.392578125 c 0
 424.549804688 450.235351562 444.475585938 453.586914062 449 355 c 0
 452.737304688 273.5703125 457.181640625 229.623046875 447.680664062 202.322265625 c 0
 440.653320312 182.125976562 432.7578125 164.166992188 432.7578125 144.068359375 c 0
 432.7578125 125.625976562 435.827148438 81.71875 420.877929688 77.259765625 c 0
 403.11328125 71.9599609375 366.090820312 109.111328125 354.82421875 125.360351562 c 0
EndSplineSet
Validated: 545
EndChar

StartChar: "+BdYFtwXZ"
Encoding: 10 1494 10
Width: 800
Flags: W
LayerCount: 2
Fore
SplineSet
358 76 m 1
 338 79 323 93 316 98 c 0
 311 103 312 114 319 128 c 0
 323 135 322 141 322 146 c 0
 320 158 319 167 317 180 c 0
 309 229 294 273 276 316 c 0
 262 341 254 372 245 398 c 0
 240 417 228 429 220 444 c 0
 212 461 207 477 201 493 c 0
 189 527 174 559 159 585 c 0
 152 596 141 600 146 610 c 0
 188 676 241 746 290 798 c 0
 292 801 294 800 296 801 c 0
 299 802 301 804 304 805 c 0
 305 806 306 806 308 807 c 0
 309 808 311 809 313 810 c 0
 315 813 318 813 320 812 c 0
 365 788 403 759 413 736 c 1
 422 698 448 659 452 623 c 0
 452 615 452 605 450 591 c 0
 448 581 446 577 440 572 c 0
 437 571 426 553 425 553 c 1
 419.27382062 533.776397795 417.060762342 505.351764129 417.060762342 475.32120288 c 0
 417.060762342 431.929709114 421.681115316 385.185410608 427 358 c 1
 446 290 469 259 491 187 c 0
 493 181 495 175 496 173 c 0
 492.53322015 130.531946831 425.217826849 71.5383701817 378.036267658 71.5383701817 c 0
 370.779343615 71.5383701817 363.998726682 72.9339841403 358 76 c 1
EndSplineSet
Validated: 513
EndChar

StartChar: "+BdcFtQXq"
Encoding: 11 1495 11
Width: 900
Flags: W
VStem: 217.172 181.156<719.446 832.727> 239.565 215.463<500.813 572.474> 589.93 179.07<99.9541 338.091 473.887 554.311>
LayerCount: 2
Fore
SplineSet
204.645507812 104.1484375 m 2x60
 203.321289062 123.775390625 206.311523438 156.8203125 204.598632812 175.260742188 c 0
 203.112304688 191.477539062 202.333007812 207.208984375 203.844726562 221.618164062 c 0
 205.178710938 233.622070312 205.770507812 245.4921875 205.685546875 255.791015625 c 0
 203.458984375 287.896484375 256.895507812 335.626953125 247.168945312 366.39453125 c 0
 237.579101562 385.997070312 239.231445312 418.575195312 239.565429688 474.880859375 c 0x60
 239.678710938 493.991210938 257.305664062 541.814453125 236.408203125 568.118164062 c 0
 223.87890625 583.888671875 226.252929688 586.744140625 217.912109375 600.809570312 c 0
 202.92578125 634.3203125 224.138671875 655.702148438 227.026367188 659.288085938 c 0
 246.04296875 683.67578125 214.140625 721.158203125 217.171875 743.139648438 c 0
 221.478515625 774.358398438 203.278320312 793.951171875 220.331054688 815.046875 c 0
 232.458007812 830.05078125 251.235351562 842.806640625 269.935546875 851.6640625 c 0
 281.844726562 857.3046875 348.848632812 863.704101562 364.530273438 863.913085938 c 0
 373.401367188 863.305664062 392.255859375 842.047851562 398.328125 822.692382812 c 0xa0
 408.612304688 789.9921875 408.859375 729.342773438 418.040039062 718.920898438 c 0
 431.133789062 707.36328125 472.013671875 709.69140625 488.876953125 709.797851562 c 0
 495.801757812 710.442382812 522.930664062 708.975585938 529.146484375 708.025390625 c 0
 546.958984375 709.235351562 560.078125 702.111328125 575.568359375 711.025390625 c 1
 584.536132812 728.153320312 570.641601562 761.297851562 573.798828125 775.01953125 c 0
 576.461914062 781.8046875 579.354492188 797.59765625 581.65234375 803.306640625 c 0
 584.154296875 811.029296875 588.375 815.89453125 592.997070312 820.244140625 c 0
 597.545898438 824.5234375 602.483398438 828.302734375 606.555664062 833.811523438 c 0
 609.806640625 838.237304688 612.58984375 842.654296875 615.916015625 845.305664062 c 0
 621.26171875 849.399414062 636.189453125 859.981445312 644.138671875 861.221679688 c 0
 662.01171875 864.008789062 673.857421875 864.858398438 683.903320312 862.84375 c 0
 694.510742188 860.716796875 705.909179688 855.396484375 717.48046875 845.794921875 c 0
 724.15625 843.077148438 727.89453125 837.807617188 733.4609375 834.69921875 c 0
 737.905273438 833.119140625 740.08984375 830.931640625 742.124023438 827.807617188 c 0
 740.825195312 815.383789062 738.384765625 781.5859375 738.854492188 768.728515625 c 0
 739.4609375 752.135742188 740.2578125 735.764648438 737.932617188 721.120117188 c 0
 734.693359375 701.383789062 736.706054688 677.52734375 736.1015625 659.821289062 c 0
 735.489257812 626.397460938 735.760742188 628.927734375 741.78515625 597.473632812 c 0
 744.348632812 584.08984375 767.2578125 601.381835938 766.24609375 559.633789062 c 0
 765.24609375 518.385742188 764.280273438 479.217773438 766.861328125 473.599609375 c 0
 776.999023438 451.5390625 751.607421875 357.46484375 754.788085938 339.408203125 c 1
 769.9375 311.422851562 765.75390625 276.26953125 769 246 c 0
 768.485351562 221.012695312 752.254882812 125.373046875 747.811523438 102.616210938 c 0
 740.599609375 67.8095703125 692.616210938 56.20703125 646.380859375 49.83984375 c 0
 616.67578125 45.75 608.986328125 50.4931640625 594.000976562 60.779296875 c 0
 576.028320312 73.115234375 590.989257812 167.510742188 589.9296875 216.438476562 c 0
 589.473632812 237.532226562 608.000976562 295.202148438 597.958007812 320.583007812 c 0
 590.211914062 340.158203125 586.4140625 337.609375 582.1875 345.638671875 c 0
 579.788085938 358.866210938 586.552734375 472.227539062 585 484.850585938 c 0
 583.283203125 498.813476562 610.20703125 542.165039062 603.990234375 554.931640625 c 1
 596.375 560.418945312 590.377929688 565.916992188 586.547851562 569.266601562 c 0
 580.09375 574.91015625 578.291992188 584.508789062 565.439453125 588.765625 c 1
 538.939453125 584.658203125 521.631835938 589.936523438 511.5703125 584.795898438 c 0
 506.958007812 582.440429688 490.780273438 582.219726562 476.017578125 572.780273438 c 0
 466.033203125 566.395507812 455.049804688 550.036132812 455.028320312 547.983398438 c 0
 455.092773438 538.935546875 478.53125 499.280273438 488.814453125 478.814453125 c 0
 498.384765625 459.767578125 494.734375 459.776367188 497.709960938 453.26171875 c 0
 506.861328125 422.576171875 501.497070312 400.990234375 491.033203125 386.842773438 c 1
 477.404296875 378.389648438 476.268554688 371.456054688 468.662109375 365.015625 c 0
 456.611328125 354.810546875 457.671875 326.576171875 453.920898438 308.029296875 c 0
 451.29296875 295.03515625 446.305664062 281.34375 447.38671875 268.846679688 c 0
 446.767578125 251.50390625 446.233398438 257.203125 436.091796875 239.487304688 c 0
 425.283203125 220.60546875 387.28125 204.064453125 373.108398438 186.4453125 c 0
 352.087890625 160.315429688 359.47265625 104.364257812 352.05078125 85.7587890625 c 1
 350.748046875 61.5244140625 340.110351562 56.4541015625 332.130859375 49.033203125 c 1
 322.139648438 26.0263671875 320.913085938 30.375 291.603515625 31.6875 c 0
 284.2890625 32.0244140625 276.510742188 32.5830078125 269.458984375 33.0537109375 c 0
 245.713867188 30.6962890625 232.701171875 55.5 225.23828125 69.8173828125 c 0
 219.428710938 80.14453125 206.619140625 85.412109375 207.299804688 89.5009765625 c 2
 204.645507812 104.1484375 l 2x60
EndSplineSet
Validated: 545
EndChar

StartChar: "+BdgFtQXq"
Encoding: 12 1496 12
Width: 1000
Flags: W
LayerCount: 2
Fore
SplineSet
297.52968 200.12128 m 1
 255.7991 307.69589 217.45725 414.37627 195.56143 469.89333 c 0
 177.34852 509.64865 164.64011 548.05751 149.1121 582.97508 c 0
 144.82567 592.90475 141.98712 603.81114 138.57541 613.49458 c 0
 124.88419 651.35259 132.3738 696.68072 136.20157 737.76287 c 0
 137.4703 741.94785 146.55925 757.70286 148.52517 757.95689 c 0
 154.6689 760.55782 175.73634 775.84039 186.79608 776.41793 c 0
 192.3548 777.12208 193.5078 774.39977 196.72402 772.05324 c 0
 197.66582 771.53072 199.70831 770.33658 201.61052 769.43018 c 0
 205.68573 764.04749 211.20394 765.62032 215.10665 761.53264 c 0
 243.77364 731.41729 338.8719 660.49269 341.05359 642.51287 c 0
 344.64955 613.62218 348.75202 583.15912 348.70188 557.76287 c 1
 342.96078 546.9284 327.4108 539.87479 319.78 529.75096 c 0
 316.79718 525.63678 313.48065 522.76287 308.92048 522.76287 c 1
 308.53398 515.10915 l 1
 321.72488 446.60963 340.19547 382.25181 358.44398 335.93665 c 0
 368.81358 309.61835 373.13433 287.79778 391.29137 277.66884 c 0
 407.96358 268.36822 431.47558 279.48296 457.45201 285.06993 c 0
 500.99087 298.508 539.89588 312.84693 581.99521 329.19098 c 0
 621.51531 344.98083 653.81008 354.86281 693.25272 364.60028 c 0
 712.25509 369.88473 744.1574 380.58471 757.54441 395.04813 c 0
 756.71292 399.67259 760.06173 418.25188 759.70219 419.76287 c 0
 739.26982 461.71501 702.76151 517.37663 690.82785 561.1556 c 1
 691.30803 579.77032 695.9014 593.04768 694.25048 612.09091 c 1
 675.56081 645.78079 597.4941 654.52148 562.70219 654.76287 c 1
 542.0085 625.17451 516.82481 595.18608 497.34313 569.71692 c 0
 494.32154 565.57902 491.50845 561.76384 490.74248 558.45643 c 1
 492.97286 558.45643 494.16289 557.76287 496.39327 557.76287 c 2
 497.08288 535.98783 l 2
 497.46216 524.01155 497.4697 511.63655 497.09968 508.48783 c 2
 496.42678 502.76287 l 1
 472.06446 502.76287 l 1
 435.55302 497.71891 444.93304 532.00299 410.95214 529.9554 c 0
 409.66104 528.36872 408.71129 527.10238 407.97196 526.0962 c 0
 406.19515 523.05108 404.25171 522.32067 401.53753 522.58582 c 0
 400.05565 522.73175 397.97229 522.94661 394.88485 523.04529 c 0
 392.66299 522.99939 392.5684 523.49454 392.06026 523.95687 c 0
 391.41685 524.54229 390.70214 525.37098 390.70214 528.25006 c 2
 390.70214 543.92961 l 2
 391.49525 552.20956 394.76187 556.19265 399.03901 562.43865 c 0
 405.44402 571.79202 414.11511 582.56386 420.13937 591.13487 c 0
 431.7083 607.59458 447.87187 621.65845 463.88873 638.26634 c 0
 478.80964 653.73785 493.21433 671.54679 513.91246 692.13919 c 0
 527.57085 707.57294 556.16876 748.08093 575.51126 750.95604 c 0
 578.86891 751.23518 579.23043 751.55631 579.5155 754.51288 c 2
 579.82886 757.76288 l 1
 640.72315 754.9687 635.62793 757.7629 685.70214 757.76287 c 1
 685.70214 754.82037 l 2
 685.70214 752.0735 685.98471 751.85742 689.95214 751.57037 c 0
 701.26696 728.33413 727.9985 710.00824 741.5928 688.31708 c 0
 746.87339 679.89133 769.49909 661.77121 774.66301 653.29787 c 0
 787.56927 632.12032 800.93671 612.61226 807.97214 592.58667 c 0
 819.57598 559.55759 822.3067 526.31384 838.96047 490.65369 c 0
 850.03874 466.93218 867.90338 443.31051 873.3928 418.00777 c 0
 873.56071 402.96428 872.0121 390.4562 868.57494 378.73439 c 0
 856.9094 347.54634 831.79359 304.60375 802.45176 295.47426 c 0
 799.01426 295.16362 780.67676 295.09188 761.70176 295.31483 c 0
 651.69707 298.30308 547.38133 246.4502 419.77284 193.95983 c 1
 376.09016 180.86067 320.19527 161.51822 297.52968 200.12128 c 1
EndSplineSet
Validated: 545
EndChar

StartChar: "+BdkF1QW5BdMA"
Encoding: 13 1497 13
Width: 700
Flags: W
VStem: 84.1572 213.718
LayerCount: 2
Fore
SplineSet
255.201171875 371.241210938 m 0
 235.673828125 401.681640625 225.313476562 439.953125 216.951171875 512.541992188 c 0
 210.169921875 571.3984375 205.047851562 577.172851562 167.323242188 568.495117188 c 0
 117.92578125 557.130859375 115.25 558.447265625 93.8203125 604.640625 c 0
 89.421875 614.228515625 87.134765625 625.779296875 84.1572265625 637.107421875 c 0
 82.08203125 647.182617188 83.3173828125 656.759765625 86.611328125 665.559570312 c 0
 90.666015625 676.390625 97.83984375 686.043945312 105.797851562 694.001953125 c 0
 113.682617188 701.763671875 123.092773438 707.666992188 135.646484375 713.657226562 c 0
 149.143554688 720.021484375 162.8515625 723.9296875 174.75390625 725.260742188 c 0
 210.4921875 726.696289062 215.7265625 724.1796875 246 691 c 0
 283.509765625 649.888671875 287.8359375 630.145507812 290.8359375 486.344726562 c 0
 291.837890625 438.31640625 295.005859375 386.25 297.875 370.640625 c 0
 302.3984375 346.033203125 301.14453125 342.260742188 288.442382812 342.260742188 c 0
 280.384765625 342.260742188 265.42578125 355.301757812 255.201171875 371.241210938 c 0
EndSplineSet
Validated: 545
EndChar

StartChar: "+BdsFtwW8BeMA"
Encoding: 14 1498 14
Width: 900
Flags: W
HStem: 652.913 148.812<158.998 280.752>
VStem: 412.202 81.8652<49.8087 169.824> 412.807 128.255<176.044 589.937>
LayerCount: 2
Fore
SplineSet
412.806640625 412.286132812 m 1xa0
 408.342773438 438.036132812 412.19921875 462.680664062 412.37890625 486.787109375 c 0
 410.954101562 507.143554688 404.327148438 523.017578125 404.033203125 541.967773438 c 0
 401.653320312 557.21875 396.686523438 572.78515625 391.275390625 587.366210938 c 0
 386.072265625 601.38671875 383.92578125 610.334960938 379.806640625 621.375 c 0
 374.088867188 630.657226562 365.576171875 640.96484375 357.390625 643.81640625 c 0
 343.987304688 648.444335938 329.66015625 650.866210938 315.282226562 652.092773438 c 0
 292.337890625 654.048828125 269.267578125 652.956054688 249.627929688 652.913085938 c 0
 225.875976562 650.109375 206.553710938 652.8671875 188.663085938 660.18359375 c 0
 170.991210938 667.411132812 150.553710938 678.393554688 132.784179688 693.548828125 c 1
 119.391601562 715.380859375 124.002929688 730.27734375 131.198242188 747.799804688 c 0
 135.751953125 759.072265625 144.75 767.163085938 153.041992188 774.633789062 c 0
 164.612304688 784.676757812 176.013671875 791.920898438 188.166015625 796.592773438 c 0
 209.407226562 804.6953125 231.60546875 802.794921875 252.485351562 801.724609375 c 0
 263.2109375 801.143554688 273.354492188 799.791992188 281.1171875 796.110351562 c 0
 285.000976562 794.23828125 284.94921875 786.526367188 291.553710938 785.234375 c 0
 294.169921875 783.157226562 300.319335938 782.573242188 305.864257812 781.8203125 c 0
 312.52734375 781.850585938 315.3125 778.236328125 319.317382812 774.043945312 c 0
 329.228515625 763.705078125 331.0390625 767.850585938 348.834960938 766.064453125 c 0
 366.380859375 764.27734375 382.754882812 760.18359375 399.875976562 757.610351562 c 0
 409.118164062 755.1484375 414.443359375 760.400390625 420.52734375 765.642578125 c 0
 427.483398438 772.02734375 433.965820312 778.176757812 442.034179688 781.866210938 c 0
 453.287109375 786.091796875 463.689453125 789.34375 474.4140625 790.813476562 c 0
 486.71484375 792.491210938 499.080078125 792.823242188 508.826171875 790.494140625 c 0
 519.94140625 786.303710938 532.0234375 786.872070312 540.8671875 780.23046875 c 0
 552.081054688 771.741210938 567.444335938 757.591796875 568.422851562 749.318359375 c 0
 569.077148438 740.439453125 569.3828125 731.033203125 569.522460938 722.05078125 c 0
 571.212890625 707.247070312 568.279296875 697.3671875 564.866210938 684.146484375 c 0
 561.403320312 672.901367188 562.268554688 662.735351562 553 658 c 0
 544.42578125 655.51953125 536.383789062 647.658203125 527.794921875 642.600585938 c 0
 521.193359375 639.831054688 519.599609375 635.611328125 518.611328125 631.387695312 c 2
 516.221679688 621.043945312 l 2
 513.508789062 615.935546875 516.62890625 614.592773438 518.358398438 611.41796875 c 0
 521.411132812 605.494140625 520.28125 591.848632812 523.120117188 582.27734375 c 0
 534.8671875 542.677734375 541.978515625 456.470703125 541.061523438 385.422851562 c 0xa0
 542.955078125 374.456054688 541.6796875 363.297851562 542.48046875 353.36328125 c 0
 544.547851562 330.3046875 545.301757812 299.701171875 541.514648438 269.693359375 c 0
 542.452148438 263.139648438 540.53515625 255.751953125 539.483398438 250.533203125 c 0
 533.762695312 219.943359375 521.118164062 192.631835938 518.518554688 175.220703125 c 1
 507.438476562 148.42578125 499.796875 88.181640625 494.067382812 72.6806640625 c 0
 489.995117188 57.474609375 482.6953125 47.58203125 461.579101562 44.2529296875 c 0
 451.8828125 42.724609375 424.232421875 43.994140625 418.149414062 49.4814453125 c 0
 411.26953125 56.4970703125 413.499023438 61.314453125 412.202148438 73.951171875 c 0xc0
 408.44140625 110.580078125 411.334960938 162.80859375 411.912109375 184.19140625 c 0
 408.196289062 263.768554688 413.321289062 343.982421875 412.806640625 412.286132812 c 1xa0
EndSplineSet
Validated: 545
EndChar

StartChar: "+BdsFtwW8BeMA +BdcF5AXZBegF1AAA"
Encoding: 15 1499 15
Width: 1000
Flags: W
HStem: 569.127 120.384<362.371 436.578>
VStem: 569.547 194.741<212.223 362.295>
LayerCount: 2
Fore
SplineSet
177.438476562 46.0908203125 m 2
 171.000976562 46.4833984375 165.734375 47.0703125 162.340820312 47.697265625 c 0
 156.139648438 49.083984375 156.61328125 56.072265625 153.325195312 60.3095703125 c 0
 149.126953125 64.7763671875 148.057617188 67.814453125 148.947265625 70.9697265625 c 0
 149.665039062 73.513671875 151.65625 76.134765625 154.307617188 79.64453125 c 0
 178.01171875 107.076171875 200.111328125 135.342773438 224.111328125 160.741210938 c 0
 231.916015625 169.594726562 233.751953125 169.045898438 244.251953125 169.393554688 c 0
 284.336914062 170.713867188 324.182617188 169.688476562 363.1953125 169.3671875 c 0
 378.888671875 169.23828125 401.818359375 154.702148438 417.203125 155.913085938 c 0
 450.493164062 158.534179688 468.428710938 182.73828125 494.446289062 192.918945312 c 1
 511.213867188 204.15234375 509.900390625 210.807617188 530.100585938 211.029296875 c 2
 545.994140625 211.204101562 l 2
 548.303710938 210.97265625 549.702148438 211.193359375 551.543945312 212.328125 c 2
 559.486328125 217.220703125 l 2
 562.267578125 219.379882812 563.784179688 220.2421875 566.653320312 220.484375 c 0
 571.62109375 221.018554688 572.889648438 224.123046875 572.0625 228.034179688 c 0
 569.657226562 238.506835938 570.166992188 250.184570312 569.546875 260.05078125 c 0
 566.669921875 303.467773438 560.59765625 343.033203125 550.084960938 379.698242188 c 0
 546.337890625 392.770507812 531.583007812 405.474609375 526.650390625 417.852539062 c 0
 513.135742188 451.765625 510.931640625 482.618164062 486.936523438 512.534179688 c 0
 479.104492188 522.219726562 455.998046875 533.01171875 441.413085938 544.270507812 c 0
 425.864257812 556.272460938 418.490234375 568.466796875 399.217773438 569.126953125 c 0
 363.911132812 576.969726562 348.779296875 551.416992188 317.18359375 539.772460938 c 0
 274.7578125 526.692382812 226.650390625 523.950195312 186.85546875 521.366210938 c 0
 168.82421875 520.232421875 148.529296875 520.020507812 132.344726562 522.86328125 c 0
 107.48828125 527.415039062 105.3125 546.111328125 103.553710938 578.043945312 c 0
 102.44140625 599.071289062 111.982421875 618.040039062 112.512695312 641.563476562 c 0
 112.845703125 656.330078125 103.310546875 676.073242188 105.048828125 689.328125 c 0
 108.571289062 716.18359375 118.163085938 721.5234375 126.366210938 734.025390625 c 0
 132.982421875 743.60546875 138.827148438 752.58984375 147.716796875 759.821289062 c 0
 156.965820312 767.345703125 167.16015625 773.446289062 177.703125 777.806640625 c 0
 192.181640625 782.747070312 204.680664062 785.780273438 215.987304688 784.424804688 c 0
 226.6640625 783.14453125 236.27734375 777.952148438 245.491210938 766.7578125 c 0
 252.575195312 758.017578125 258.348632812 747.69921875 263.532226562 739.341796875 c 0
 270.465820312 729.279296875 279.474609375 719.956054688 285.171875 717.30078125 c 0
 292.16015625 717.123046875 299.502929688 715.841796875 306.171875 713.3984375 c 0
 314.8125 710.232421875 322.322265625 705.115234375 326.46484375 697.916992188 c 0
 329.130859375 693.279296875 332.112304688 688.064453125 337.184570312 685.490234375 c 0
 341.685546875 683.20703125 347.1953125 685.533203125 352.240234375 687.689453125 c 0
 355.4921875 689.614257812 357.85546875 689.765625 361.538085938 689.803710938 c 0
 379.33203125 689.962890625 395.799804688 689.336914062 412.32421875 689.510742188 c 0
 416.525390625 688.939453125 418.056640625 690.857421875 420.395507812 693.50390625 c 0
 452.88671875 727.359375 479.0078125 770.763671875 512.405273438 792.640625 c 0
 534.772460938 804.040039062 546.900390625 813.370117188 569.485351562 806.211914062 c 0
 584.095703125 802.270507812 602.185546875 787.161132812 608.352539062 774.760742188 c 0
 611.63671875 772.58203125 612.590820312 761.16015625 613.53515625 760.147460938 c 2
 614.76953125 736.293945312 l 2
 615.448242188 723.174804688 616.006835938 704.774414062 616.010742188 695.403320312 c 2
 616.010742188 684.004882812 l 2
 615.463867188 679.634765625 616.791015625 675.315429688 618.14453125 671.768554688 c 0
 618.96875 669.619140625 619.934570312 667.365234375 620.987304688 665.079101562 c 0
 625.041015625 656.272460938 630.377929688 646.9921875 633.880859375 641.370117188 c 0
 667.548828125 598.397460938 696.30859375 550.880859375 703.395507812 498.5234375 c 0
 703.959960938 483.73828125 703.979492188 465.474609375 703.438476562 457.9375 c 0
 701.016601562 441.204101562 707.401367188 437.990234375 709.548828125 423.935546875 c 1
 731.59375 407.643554688 741.385742188 356.364257812 756.416992188 328.533203125 c 0
 760.96875 321.044921875 760.891601562 312.248046875 761.677734375 304.416015625 c 0
 764.844726562 272.741210938 764.842773438 246.135742188 764.288085938 231.3515625 c 0
 764.459960938 224.185546875 763.627929688 217.05859375 758.94140625 211.983398438 c 0
 753.100585938 205.740234375 743.524414062 201.12890625 736.541015625 194.286132812 c 0
 725.37890625 182.973632812 712.915039062 173.45703125 703.34375 161.987304688 c 0
 692.57421875 148.905273438 682.092773438 133.901367188 670.1640625 126.016601562 c 0
 648.32421875 119.213867188 618.365234375 111.194335938 597.315429688 110.088867188 c 0
 586.81640625 109.625976562 576.75390625 109.338867188 569.756835938 104.788085938 c 0
 564.190429688 101.883789062 561.146484375 97.3671875 557.572265625 92.7373046875 c 0
 548.916015625 81.544921875 541.0625 74.0068359375 532.702148438 66.1484375 c 0
 524.766601562 58.0185546875 525.2421875 58.6318359375 513.702148438 58.6318359375 c 2
 474.66796875 58.6318359375 l 2
 459.564453125 59.751953125 448.5 58.90234375 438.666992188 57.212890625 c 0
 423.41796875 53.029296875 419.129882812 50.19921875 404.927734375 45.68359375 c 0
 398.416015625 43.5703125 392.630859375 40.353515625 385.943359375 34.1474609375 c 0
 366.57421875 10.7490234375 327.345703125 18.443359375 301.104492188 17.3017578125 c 0
 273.057617188 16.1748046875 254.294921875 18.751953125 229.0546875 28.97265625 c 0
 211.250976562 36.689453125 192.615234375 39.3544921875 177.43359375 46.0908203125 c 1
 177.438476562 46.0908203125 l 2
EndSplineSet
Validated: 545
EndChar

StartChar: "+BdwFtwXeBbAF0wAA"
Encoding: 16 1500 16
Width: 800
Flags: W
VStem: 137.698 138.438<565.046 855.544>
LayerCount: 2
Fore
SplineSet
236.517578125 41.962890625 m 0
 216.336914062 64.0322265625 219.348632812 85.6015625 248.704101562 129.232421875 c 0
 276.530273438 170.590820312 264.1484375 199.502929688 249.135742188 229.30078125 c 0
 244.717773438 238.069335938 231.15234375 256.963867188 227.051757812 276.84765625 c 2
 227.051757812 276.84765625 215.998046875 307.7265625 210.4296875 321.951171875 c 0
 198.830078125 351.580078125 177.505859375 458.88671875 173.750976562 482.704101562 c 0
 168.983398438 510.470703125 165.60546875 528.5859375 162.12890625 549.919921875 c 0
 157.921875 575.73828125 153.5703125 606.26953125 146.435546875 664.327148438 c 0
 142.823242188 687.747070312 139.715820312 712.666015625 137.698242188 737.598632812 c 0
 134.615234375 775.688476562 134.07421875 813.809570312 138.155273438 846.66796875 c 0
 139.640625 857.8515625 141.85546875 868.864257812 145.114257812 879.724609375 c 0
 150.3515625 894.44921875 160.360351562 900.123046875 171.435546875 900.28125 c 0
 183.706054688 900.45703125 229.049804688 882.291015625 238.899414062 873.73046875 c 0
 267.345703125 847.842773438 273.626953125 803.171875 276.135742188 770.30078125 c 0
 278.989257812 725.639648438 268.217773438 659.670898438 262.747070312 549.895507812 c 0
 259.844726562 491.6484375 259.30078125 375.311523438 272 340 c 0
 279.811523438 318.279296875 281.692382812 314.696289062 288.512695312 303.46484375 c 0
 300.959960938 282.965820312 295.265625 278.674804688 341.336914062 280.4453125 c 0
 373.780273438 281.692382812 380.395507812 276.0625 404.526367188 226.66796875 c 0
 413.068359375 212.607421875 417.729492188 204.200195312 417.909179688 195.275390625 c 0
 418.05078125 188.271484375 415.430664062 180.94921875 409.7578125 170.325195312 c 0
 403.354492188 158.333984375 393.15625 144.874023438 387.094726562 140.416015625 c 0
 381.033203125 135.95703125 368.2578125 121.946289062 358.705078125 109.280273438 c 0
 299.349609375 30.58203125 264.48828125 11.375 236.517578125 41.962890625 c 0
EndSplineSet
Validated: 524833
EndChar

StartChar: "+Bd4FtQXd +BdcF5AXZBegF1AAA"
Encoding: 17 1501 17
Width: 700
Flags: W
HStem: 610.642 93.7842<359.045 468.627> 610.646 85.4609<213.003 271.121>
VStem: 270.768 86.0625<370.996 598.429> 552.449 80.8984<188.342 403.462>
LayerCount: 2
Fore
SplineSet
317.329101562 136.921875 m 4xb0
 302.56640625 249.254882812 286.612304688 463.330078125 272.768554688 567.287109375 c 4
 272.360351562 570.352539062 270.747070312 570.112304688 270.767578125 573.444335938 c 4
 270.723632812 575.146484375 269.46875 578.137695312 270.33203125 581.151367188 c 4
 271.334960938 588.942382812 272.666015625 595.102539062 265.724609375 598.990234375 c 4
 264.071289062 599.8515625 262.91796875 601.075195312 261.229492188 602.396484375 c 4
 259.724609375 603.98828125 258.9453125 604.135742188 256.75 604.5078125 c 4
 244.576171875 604.296875 225.200195312 608.932617188 212.934570312 610.326171875 c 4
 209.92578125 610.66796875 207.34375 610.814453125 205.40234375 610.646484375 c 4
 202.850585938 609.764648438 200.319335938 608.866210938 197.805664062 607.9609375 c 4
 180.712890625 601.809570312 206.612304688 605.625 190.271484375 601.797851562 c 4
 187.19140625 601.077148438 144.66015625 590.185546875 141.569335938 589.669921875 c 4
 138.90625 589.25390625 138.490234375 588.426757812 134.068359375 588.741210938 c 4
 124.813476562 589.416015625 116.463867188 583.009765625 106.840820312 586.396484375 c 4
 101.91015625 590.078125 96.73828125 590.48046875 95.8330078125 590.782226562 c 4
 91.6640625 593.283203125 88.572265625 592.341796875 85.662109375 596.162109375 c 4
 83.3515625 599.178710938 81.822265625 605.173828125 80.822265625 610.591796875 c 4
 78.9833984375 616.291992188 80.296875 621.791015625 81.46484375 626.764648438 c 4
 84.67578125 640.448242188 89.4921875 660.745117188 94.376953125 675.954101562 c 4
 100.131835938 687.991210938 102.310546875 701.234375 107.532226562 712.703125 c 4
 112.732421875 723.346679688 114.693359375 730.6328125 119.967773438 740.1171875 c 4
 123.624023438 746.185546875 127.376953125 751.87109375 133.119140625 756.201171875 c 4
 135.678710938 758.698242188 138.92578125 761.461914062 141.872070312 763.315429688 c 4
 146.877929688 766.774414062 153.907226562 766.93359375 158.376953125 769.877929688 c 4
 161.634765625 771.624023438 164.501953125 773.556640625 167.463867188 775.22265625 c 4
 172.026367188 777.752929688 177.748046875 779.684570312 182.456054688 778.975585938 c 4
 191.193359375 778.370117188 198.856445312 782.4296875 206.211914062 778.997070312 c 4
 207.021484375 778.603515625 207.735351562 778.0625 208.41015625 777.299804688 c 4
 217.05078125 760.448242188 217.923828125 729.921875 213.084960938 713.4296875 c 4
 211.37890625 708.673828125 207.584960938 703.724609375 205.283203125 700.493164062 c 4
 201.087890625 695.333984375 202.82421875 689.864257812 200.059570312 685.418945312 c 4
 193.689453125 675.176757812 232.106445312 701.139648438 246.744140625 698.10546875 c 4
 253.8515625 696.92578125 262.418945312 695.323242188 268.212890625 696.107421875 c 4x70
 277.040039062 697.295898438 286.260742188 693.591796875 288.1171875 695.440429688 c 4
 292.701171875 699.560546875 302.711914062 703.970703125 306.192382812 711.8203125 c 4
 312.368164062 725.752929688 315.077148438 742.388671875 320.743164062 754.259765625 c 4
 322.4140625 757.49609375 324.279296875 761.162109375 326.233398438 764.706054688 c 4
 327.987304688 766.393554688 329.782226562 769.6484375 331.419921875 772.981445312 c 4
 333.568359375 777.356445312 335.444335938 781.866210938 336.598632812 783.1484375 c 4
 340.68359375 787.442382812 347.3359375 791.72265625 352.119140625 796.640625 c 4
 352.99609375 797.54296875 353.810546875 798.465820312 354.534179688 799.4140625 c 4
 356.009765625 800.231445312 357.57421875 800.77734375 359.181640625 801.08984375 c 4
 364.62890625 802.1484375 370.57421875 800.528320312 375.233398438 797.677734375 c 4
 376.686523438 796.7890625 378.013671875 795.779296875 379.162109375 794.6953125 c 4
 380.045898438 793.80859375 380.9921875 792.864257812 381.987304688 791.870117188 c 4
 393.375 780.486328125 410.990234375 762.612304688 410.169921875 751.19140625 c 4
 410.033203125 749.721679688 409.96484375 747.903320312 409.94921875 746.186523438 c 4
 409.930664062 744.186523438 409.984375 742.323242188 410.083007812 741.3125 c 4
 410.321289062 737.171875 409.09765625 721.26171875 406.18359375 714.35546875 c 4
 405.68359375 713.169921875 405.133789062 712.25 404.533203125 711.700195312 c 4
 403.846679688 710.997070312 403.090820312 710.2421875 402.2734375 709.44921875 c 4
 393.530273438 700.962890625 377.780273438 688.122070312 365.54296875 687.954101562 c 4
 364.161132812 687.935546875 362.82421875 688.078125 361.546875 688.407226562 c 4
 358.432617188 690.021484375 358.349609375 692.2578125 356.80078125 691.44140625 c 4
 352.2734375 689.055664062 350.369140625 691.27734375 353.008789062 685.640625 c 4
 354.884765625 684.603515625 356.83984375 683.837890625 358.840820312 683.303710938 c 4
 360.577148438 682.98828125 362.24609375 682.80859375 363.860351562 682.744140625 c 4
 373.55078125 682.356445312 384.999023438 689.189453125 393.56640625 692.836914062 c 4
 394.994140625 693.427734375 396.450195312 694.03125 397.924804688 694.646484375 c 4
 399.33984375 695.236328125 401.111328125 695.497070312 402.552734375 696.104492188 c 4
 418.997070312 702.077148438 440.85546875 704.259765625 458.329101562 704.42578125 c 4
 459.250976562 704.434570312 460.83984375 704.4375 461.736328125 704.435546875 c 4
 463.247070312 704.431640625 464.040039062 704.413085938 465.465820312 704.379882812 c 4
 488.870117188 704.884765625 557.797851562 704.715820312 568.797851562 687.625976562 c 5
 581.307617188 645.671875 592.9296875 603.026367188 602.455078125 559.984375 c 4
 607.138671875 538.8203125 612.416992188 423.303710938 616.154296875 402.751953125 c 4
 620.120117188 380.939453125 625.702148438 360.680664062 628.276367188 340.215820312 c 4
 629.888671875 321.497070312 631.508789062 302.982421875 632.642578125 284.646484375 c 4
 632.856445312 281.198242188 633.051757812 277.756835938 633.227539062 274.3203125 c 4
 633.401367188 270.922851562 633.5546875 267.53125 633.684570312 264.14453125 c 4
 634.370117188 246.33203125 634.412109375 228.681640625 633.34765625 211.16796875 c 4
 633.161132812 208.185546875 632.81640625 205.169921875 632.33203125 202.141601562 c 4
 629.19921875 182.522460938 620.25 162.397460938 610.85546875 147.828125 c 4
 607.625976562 143.0078125 603.991210938 138.013671875 599.684570312 132.31640625 c 4
 599.040039062 131.458007812 598.28125 130.439453125 597.344726562 129.190429688 c 4
 596.666992188 128.336914062 596.694335938 129.333007812 596.077148438 128.184570312 c 4
 593.690429688 123.28515625 572.1171875 104.518554688 568.3359375 100.372070312 c 4
 554.7265625 88.3779296875 560.509765625 91.2919921875 545.295898438 82.021484375 c 4
 538.623046875 77.9560546875 469.40234375 53.0224609375 462.907226562 49.5078125 c 4
 440.940429688 37.6806640625 402.276367188 44.2109375 382.36328125 35.2421875 c 4
 374.790039062 31.439453125 366.8515625 28.99609375 358.920898438 28.259765625 c 4
 347.723632812 27.2197265625 336.541992188 29.5830078125 326.426757812 36.330078125 c 4
 315.6875 45.23828125 312.674804688 58.5771484375 312.731445312 71.0185546875 c 4
 314.375 93.16015625 317.091796875 117.142578125 317.329101562 136.921875 c 4xb0
549.7109375 212.157226562 m 4
 554.408203125 233.19140625 551.344726562 256.5625 552.44921875 275.064453125 c 5
 547.790039062 294.03125 545.015625 320.486328125 542.088867188 337.810546875 c 4
 538.055664062 360.263671875 536.220703125 380.122070312 531.140625 399.193359375 c 4
 525.3203125 421.04296875 520.907226562 457.5078125 504.907226562 509.5078125 c 4
 499.484375 527.131835938 495.907226562 537.5078125 489.907226562 556.5078125 c 4
 488.364257812 561.39453125 486.53515625 569.249023438 484.930664062 573.98828125 c 4
 483.01953125 579.041992188 479.970703125 584.7421875 478.76953125 589.3984375 c 4
 477.485351562 594.293945312 471.124023438 600.97265625 468.896484375 603.127929688 c 4
 463.350585938 608.49609375 445.045898438 613.725585938 431.98828125 610.641601562 c 4xb0
 413.947265625 606.380859375 360.264648438 597.624023438 358.752929688 587.553710938 c 4
 358.321289062 584.677734375 357.494140625 581.358398438 356.55859375 578.53515625 c 4
 355.948242188 574 357.3046875 568.905273438 356.830078125 565.122070312 c 4
 356.303710938 560.921875 356.723632812 460.5 355.478515625 457.466796875 c 4
 356.672851562 454.416992188 355.810546875 449.087890625 356.84375 447.06640625 c 4
 357.025390625 444.09375 358.3125 438.083984375 357.890625 435.952148438 c 4
 363.823242188 376.875976562 378.140625 322.19140625 381.491210938 265.295898438 c 4
 382.766601562 255.868164062 383.485351562 246.611328125 384.119140625 237.616210938 c 4
 385.00390625 225.060546875 385.72265625 213.015625 387.556640625 201.727539062 c 4
 388.685546875 183.673828125 392.818359375 160.135742188 398.227539062 144.018554688 c 5
 412.408203125 126.02734375 442.348632812 133.849609375 459.799804688 143.245117188 c 4
 485.997070312 156.124023438 544.98828125 191.005859375 549.7109375 212.157226562 c 4
EndSplineSet
Validated: 524833
EndChar

StartChar: "+Bd4FtQXd"
Encoding: 18 1502 18
Width: 1124
Flags: W
HStem: 85.3916 145.889<340.995 414.967> 102.686 159.661<483.555 682.511>
LayerCount: 2
Fore
SplineSet
319.283203125 178.498046875 m 0x80
 332.298828125 203.747070312 357.885742188 230.25 376.41796875 231.280273438 c 0x80
 388.583984375 231.965820312 403.703125 229.301757812 415.5234375 228.918945312 c 0
 490.44140625 235.578125 448.19921875 222.462890625 499.967773438 249.063476562 c 1
 538.484375 263.004882812 547.29296875 262.665039062 561.115234375 262.346679688 c 0
 570.465820312 262.130859375 579.9609375 251.38671875 600.478515625 265.314453125 c 0
 610.983398438 272.30859375 669.693359375 263.790039062 682.510742188 263.790039062 c 1
 680.89453125 294.168945312 674.356445312 385.200195312 668.540039062 410.639648438 c 0
 665.985351562 420.202148438 660.23046875 426.203125 647.655273438 426.072265625 c 1
 645.15625 451.98046875 595.59375 498.729492188 595.737304688 525.311523438 c 1
 559.411132812 525.971679688 l 2
 544.940429688 526.497070312 561.009765625 518.604492188 546.544921875 518.185546875 c 0
 544.349609375 515.334960938 539.305664062 516.673828125 532.3515625 513.990234375 c 0
 520.295898438 509.33984375 513.627929688 498.454101562 507.23828125 492.780273438 c 0
 496.352539062 483.116210938 479.201171875 474.951171875 481.1953125 462.774414062 c 0
 483.168945312 450.725585938 461.859375 452.32421875 456.081054688 449.946289062 c 0
 444.952148438 445.365234375 437.813476562 442.92578125 425.893554688 437.265625 c 0
 395.334960938 423.137695312 335.673828125 387.732421875 305.204101562 387.732421875 c 1
 286.264648438 381.037109375 249.056640625 345.778320312 229.344726562 345.778320312 c 2
 212.244140625 345.778320312 l 1
 179.395507812 345.778320312 l 2
 169.7421875 346.149414062 149.588867188 379.75390625 147.93359375 379.833007812 c 0
 139.931640625 393.444335938 160.478515625 428.341796875 168.754882812 433.250976562 c 0
 185.65234375 440.901367188 175.185546875 448.477539062 191.69921875 456.297851562 c 0
 209.842773438 462.84765625 197.162109375 469.606445312 228.134765625 477.790039062 c 0
 239.298828125 480.739257812 208.887695312 496.049804688 226.779296875 503.440429688 c 0
 240.055664062 511.0390625 261.033203125 514.256835938 276.322265625 518.240234375 c 0
 284.983398438 520.49609375 299.32421875 519.962890625 299.32421875 528.138671875 c 1
 291.239257812 526.252929688 285.887695312 526.12109375 282.977539062 529.98828125 c 0
 281.84375 532.32421875 281.231445312 534.068359375 281.115234375 535.482421875 c 0
 280.809570312 539.188476562 283.908203125 540.623046875 289.922851562 544.50390625 c 1
 289.896484375 553.6171875 291.8203125 552.916015625 283.743164062 552.916015625 c 2
 277.587890625 552.916015625 l 2
 268.12890625 553.163085938 268.350585938 550.670898438 268.350585938 559.58203125 c 2
 273.475585938 571.729492188 l 1
 262.841796875 571.729492188 l 1
 252.208007812 571.729492188 l 1
 254.127929688 592.114257812 l 2
 254.094726562 602.533203125 256.609375 606.793945312 255.134765625 613.461914062 c 0
 249.108398438 631.547851562 231.612304688 616.215820312 231.612304688 632.424804688 c 1
 224.8203125 644.345703125 l 1
 228.411132812 654.288085938 223.752929688 647.409179688 218.240234375 657.295898438 c 0
 210.91015625 670.440429688 214.618164062 665.982421875 214.825195312 677.391601562 c 0
 210.009765625 693.795898438 222.880859375 729.891601562 228.916015625 734.435546875 c 0
 232.4296875 737.081054688 236.44921875 749.775390625 239.420898438 755.07421875 c 0
 243.213867188 761.83203125 244.540039062 760.12109375 244.909179688 770.877929688 c 0
 245.58984375 780.040039062 241.786132812 803.479492188 250.926757812 810.150390625 c 0
 263.681640625 819.296875 265.634765625 820.286132812 273.18359375 820.734375 c 0
 284.88671875 818.213867188 285.638671875 824.017578125 291.727539062 830.372070312 c 0
 297.428710938 836.323242188 320.129882812 838.287109375 326.814453125 838.8203125 c 0
 339.50390625 839.663085938 349.9296875 826.490234375 354.459960938 823.47265625 c 0
 361.459960938 818.431640625 358.674804688 812.842773438 367.458984375 807.240234375 c 0
 373.983398438 802.19140625 378.463867188 796.512695312 384.866210938 796.483398438 c 0
 398.392578125 798.328125 405.247070312 794.853515625 408.927734375 788.514648438 c 0
 412.186523438 782.899414062 408.000976562 772.504882812 413.899414062 764.743164062 c 0
 417.743164062 759.686523438 432.502929688 757.67578125 433.587890625 752.205078125 c 2
 437.466796875 710.758789062 l 1
 464.83984375 710.356445312 449.627929688 677.04296875 473.4140625 677.34375 c 1
 474.401367188 698.024414062 534.3203125 691.515625 557.14453125 694.911132812 c 0
 583.045898438 699.352539062 592.987304688 711.169921875 609.161132812 710.982421875 c 0
 647.061523438 708.732421875 669.172851562 706.084960938 699.067382812 692.447265625 c 1
 727.323242188 684.520507812 751.698242188 653.6171875 751.698242188 624.337890625 c 2
 755.321289062 569.143554688 l 2
 755.548828125 561.493164062 773.361328125 561.204101562 774.27734375 554.016601562 c 0
 786.100585938 461.233398438 866.002929688 381.46484375 862.049804688 273.349609375 c 1
 867.624023438 249.489257812 885.51171875 239.380859375 876.139648438 224.19140625 c 0
 871.384765625 214.798828125 869.42578125 200.435546875 864.69921875 196.28515625 c 0
 858.493164062 190.8359375 903.356445312 159.250976562 844.271484375 162.411132812 c 1
 811.294921875 149.129882812 797.541015625 148.725585938 774.716796875 131.385742188 c 0
 754.39453125 119.462890625 734 124.724609375 727.741210938 124.06640625 c 0
 721.860351562 123.448242188 714.573242188 103.157226562 696.896484375 102.685546875 c 0x40
 679.900390625 102.232421875 643.693359375 116.2421875 625.790039062 107.315429688 c 0
 563.5078125 81.10546875 583.227539062 105.145507812 518.203125 93.53515625 c 0
 484.291015625 87.2333984375 453.858398438 106.311523438 439.08984375 92.748046875 c 0
 430.674804688 89.326171875 421.37890625 86.8955078125 411.760742188 85.3916015625 c 0
 392.931640625 82.447265625 356.171475217 123.780540123 350.321289062 107.284179688 c 0
 341 81 333.30859375 112.629882812 329 117 c 0
 313.104492188 133.672851562 310.36328125 156.995117188 319.283203125 178.498046875 c 0x80
EndSplineSet
Validated: 545
EndChar

StartChar: "+BeAF1QW8Bd8A +BdcF5AXZBegF1AAA"
Encoding: 19 1503 19
Width: 800
Flags: W
VStem: 416.4 108.126<187.516 380.697>
LayerCount: 2
Fore
SplineSet
317.112304688 18.9833984375 m 5
 316.844726562 33.79296875 331.208984375 45.6728515625 343.875 58.12890625 c 4
 359.938476562 70.5849609375 373.5703125 85.6904296875 384.9453125 102.387695312 c 4
 398.5625 122.375976562 408.946289062 144.645507812 416.400390625 167.380859375 c 5
 415.9765625 182.111328125 411.05859375 194.883789062 411.776367188 208.583007812 c 4
 412.372070312 219.193359375 415.81640625 227.131835938 418.833007812 238.65234375 c 4
 421.764648438 249.958007812 420.618164062 254.52734375 415.86328125 266.328125 c 4
 406.19921875 290.310546875 405.447265625 294.3046875 402.546875 337.046875 c 4
 401.068359375 358.834960938 397.647460938 377.669921875 394.604492188 380.782226562 c 4
 383.905273438 391.725585938 354.918945312 441.35546875 349.430664062 458.125 c 4
 344.612304688 471.577148438 335.498046875 478.392578125 326.20703125 485.5703125 c 4
 321.223632812 489.419921875 316.189453125 493.374023438 311.740234375 498.51171875 c 4
 290.875976562 517.543945312 271.032226562 539.428710938 252.08203125 560.864257812 c 4
 233.694335938 584.522460938 209.904296875 602.21875 193.53125 624.96875 c 4
 184.686523438 637.21875 170.876953125 636.682617188 155.813476562 638.014648438 c 4
 138.412109375 639.9765625 127.305664062 642.993164062 117.072265625 648.026367188 c 4
 107.599609375 652.685546875 98.8720703125 659.071289062 86.58984375 667.948242188 c 4
 65.7646484375 683.412109375 58.8466796875 686.685546875 66.275390625 739.7734375 c 4
 71.021484375 756.797851562 62.298828125 774.545898438 65.994140625 791.358398438 c 4
 72.015625 818.752929688 90.2275390625 843.666015625 98.8662109375 858.922851562 c 4
 112.798828125 878.627929688 133.8671875 888.694335938 146 909 c 4
 162.051757812 944.671875 188.525390625 906.385742188 188.991210938 889.931640625 c 4
 189.068359375 886.32421875 192.0703125 878.588867188 195.659179688 872.741210938 c 4
 198.5546875 863.205078125 202.264648438 854.288085938 206.502929688 845.802734375 c 4
 218.349609375 822.081054688 234.315429688 801.734375 248.094726562 780.661132812 c 4
 260.5078125 754.56640625 276.505859375 732.271484375 294.232421875 711.846679688 c 4
 319.07421875 683.224609375 347.309570312 658.276367188 373.833007812 631.692382812 c 4
 381.103515625 624.188476562 386.516601562 614.727539062 393.669921875 603.766601562 c 4
 428.551757812 557.345703125 448.16796875 534.94921875 472.479492188 492.583984375 c 4
 485.237304688 470.140625 492.854492188 443.78125 503.576171875 424.48828125 c 4
 514.036132812 401.478515625 520.333984375 375.733398438 525.5859375 353.08984375 c 5
 526.327148438 324.125976562 526.197265625 290.68359375 524.526367188 264.504882812 c 4
 522.064453125 242.849609375 516.58984375 223.298828125 509.465820312 204.779296875 c 4
 499.87109375 179.8359375 487.284179688 156.764648438 475.041992188 132.944335938 c 4
 466.172851562 115.783203125 456.591796875 99.8759765625 441.857421875 87.8486328125 c 4
 417.866210938 64.56640625 396.475585938 35.17578125 379.680664062 11.4326171875 c 4
 374.008789062 3.255859375 363.162109375 0.8828125 350.764648438 -3.873046875 c 4
 332.595703125 -10.88671875 319.094726562 3.490234375 317.111328125 18.9833984375 c 5
 317.112304688 18.9833984375 l 5
EndSplineSet
Validated: 545
EndChar

StartChar: "+BeAF1QW8Bd8A"
Encoding: 20 1504 20
Width: 900
Flags: W
HStem: 63.8574 143.664<151.75 256.424> 81.6455 179.014<324.959 530.026>
VStem: 515.448 91.4248<308.264 449.893>
LayerCount: 2
Fore
SplineSet
146.254882812 78.9658203125 m 0xa0
 141.577148438 81.9697265625 131.734375 93.052734375 124.702148438 107.005859375 c 1
 122.592773438 123.475585938 117.455078125 154.178710938 133.881835938 168.623046875 c 0
 142.981445312 176.151367188 150.484375 184.161132812 158.334960938 191.84375 c 0
 167.173828125 200.47265625 164.3359375 193.169921875 179.478515625 202.143554688 c 1
 189.638671875 203.275390625 l 2
 193.744140625 203.162109375 197.384765625 202.70703125 200.4296875 203.293945312 c 0
 206.9140625 204.545898438 211.697265625 207.526367188 219.54296875 207.521484375 c 0xa0
 228.1171875 207.009765625 239.173828125 207.314453125 247.280273438 207.77734375 c 0
 253.061523438 208.1015625 252.024414062 210.880859375 256.635742188 210.504882812 c 0
 259.97265625 215.206054688 271.286132812 216.25390625 274.581054688 218.046875 c 0
 279.440429688 220.689453125 284.813476562 221.690429688 292.34765625 225.525390625 c 0
 297.672851562 227.5 303.149414062 229.903320312 308.715820312 232.016601562 c 0
 316.837890625 235.077148438 319.380859375 233.940429688 322.98046875 237.236328125 c 0
 328.09765625 241.920898438 356.3203125 257.342773438 366.413085938 260.659179688 c 0
 379.309570312 264.897460938 391.633789062 255.951171875 403.572265625 262.061523438 c 0
 408.654296875 264.662109375 460.614257812 271.258789062 465.688476562 273.541015625 c 0
 484.629882812 282.05859375 513.760742188 265.4453125 530.834960938 274.083984375 c 1
 529.06640625 280.564453125 525.366210938 328.677734375 523.30078125 334.013671875 c 0
 522.8125 339.995117188 516.326171875 393.064453125 515.448242188 398.374023438 c 0
 515.600585938 404.286132812 515.728515625 407.6796875 515.283203125 410.53125 c 0
 512.604492188 417.875976562 528.4453125 434.563476562 523.827148438 442.25 c 0
 517.817382812 452.254882812 496.4609375 442.756835938 493.16796875 452.040039062 c 0
 487.03125 468.458984375 488.875 470.813476562 480.9375 485.619140625 c 0
 475.483398438 495.79296875 480.818359375 507.15625 475.723632812 516.971679688 c 0
 472.267578125 524.318359375 484.694335938 551.490234375 476.036132812 563.141601562 c 0
 471.237304688 569.798828125 464.271484375 566.961914062 459.64453125 572.676757812 c 0
 456.693359375 576.3203125 454.693359375 583.440429688 454.811523438 598.716796875 c 0
 454.923828125 613.099609375 445.350585938 607.51171875 434.745117188 616.24609375 c 0
 421.043945312 627.728515625 416.559570312 656.825195312 410.036132812 672.346679688 c 0
 405.630859375 682.830078125 403.200195312 694.866210938 403.200195312 709.306640625 c 1
 397.350585938 724.463867188 411.176757812 730.384765625 412.026367188 736.749023438 c 0
 409.014648438 745.315429688 410.93359375 754.057617188 414.177734375 762.9140625 c 0
 418.3515625 774.311523438 424.71875 785.899414062 425.596679688 797.551757812 c 1
 416.012695312 802.528320312 443.634765625 824.296875 447.615234375 819.515625 c 1
 467.842773438 825.052734375 503.232421875 831.471679688 522.549804688 832.6015625 c 0
 527.625 835.612304688 533.353515625 837.240234375 536.948242188 835.334960938 c 0
 543.260742188 832.108398438 545.793945312 827.301757812 549.184570312 822.018554688 c 0
 551.993164062 817.427734375 557.275390625 814.666015625 559.561523438 811.3828125 c 0
 564.29296875 800.524414062 574.865234375 792.969726562 579.629882812 784.875 c 0
 585.481445312 774.935546875 585.625 764.944335938 592.728515625 756.341796875 c 0
 594.9765625 753.405273438 596.69140625 750.291992188 598.5703125 747.575195312 c 0
 617.721679688 732.682617188 600.197265625 731.896484375 599.989257812 722.545898438 c 2
 599.989257812 713.694335938 l 1
 608.594726562 713.694335938 l 2
 616.680664062 712.26171875 619.955078125 699.663085938 621.16796875 691.514648438 c 0
 628.717773438 672.553710938 610.680664062 664.87890625 608.8359375 655.920898438 c 0
 606.89453125 641.752929688 610.852539062 620.403320312 610.998046875 611.416015625 c 0
 609.876953125 604.329101562 611.528320312 597.216796875 613.809570312 590.096679688 c 0
 628.717773438 559.182617188 598.3359375 481.641601562 606.873046875 449.892578125 c 0
 608.79296875 438.17578125 605.09765625 425.509765625 608.225585938 415.436523438 c 0
 612.618164062 401.155273438 615.489257812 396.9609375 616.81640625 384.331054688 c 0
 618.0703125 366.739257812 625.5625 338.274414062 625.47265625 322.29296875 c 0
 624.259765625 320.5 627.760742188 315 628.876953125 311.006835938 c 2
 634.80078125 267.591796875 l 2
 636.094726562 259.017578125 625.185546875 261.220703125 631.01953125 257.779296875 c 0
 640.552734375 252.0859375 646.233398438 241.612304688 650.858398438 231.12109375 c 0
 653.577148438 224.952148438 655.931640625 218.77734375 658.490234375 213.564453125 c 0
 661.758789062 208.365234375 664.264648438 203.173828125 665.623046875 197.625976562 c 0
 669.962890625 179.735351562 667.141601562 162.192382812 663.24609375 148.166015625 c 0
 659.643554688 141.624023438 660.952148438 141.572265625 661.578125 135.556640625 c 0
 663.064453125 122.081054688 656.109375 79.83203125 647.120117188 81.248046875 c 1
 613.0703125 70.5478515625 595.614257812 94.8486328125 559.405273438 83.1884765625 c 0
 552.176757812 82.8203125 545.194335938 78.080078125 538.703125 77.5546875 c 0
 530.823242188 76.9990234375 525.712890625 81.6455078125 515.91796875 81.6455078125 c 0x60
 502.392578125 85.4814453125 486.213867188 82.4248046875 470 78 c 0
 453.428710938 73.4775390625 436.821289062 67.5244140625 422.974609375 66.0400390625 c 0
 401.060546875 63.69140625 406.349609375 69.59375 385.146484375 64.6083984375 c 0
 378.1015625 62.8408203125 363.65234375 68.267578125 359.2109375 68.0029296875 c 0
 306.995117188 65.83984375 284.53125 63.7216796875 249.037109375 63.568359375 c 0
 240.095703125 63.529296875 230.328125 63.6162109375 219.048828125 63.857421875 c 0
 209.803710938 64.0537109375 200.637695312 64.205078125 191.91796875 64.4853515625 c 0
 182.037109375 65.3837890625 172.493164062 67.392578125 163.61328125 70.59375 c 0
 157.474609375 72.8056640625 151.65234375 75.587890625 146.254882812 78.9658203125 c 0xa0
EndSplineSet
Validated: 545
EndChar

StartChar: "+BeEFtQXeBbAF2wWwBbwA"
Encoding: 21 1505 21
Width: 1640
Flags: W
HStem: 546.276 3.22754<503.922 535.379> 548.636 114.19<430.845 602.543>
VStem: 296.015 129.599<175.054 415.356>
LayerCount: 2
Fore
SplineSet
325.52734375 105.623046875 m 0x60
 324.05078125 107.409179688 322.490234375 109.284179688 320.786132812 111.294921875 c 0
 320.12109375 113.376953125 319.5625 115.036132812 319.084960938 116.364257812 c 0
 318.55859375 119.201171875 317.201171875 120.932617188 315.155273438 122.498046875 c 0
 313.420898438 123.864257812 302.870117188 157.11328125 301.030273438 157.676757812 c 0
 290.791015625 220.043945312 298.623046875 276.0390625 296.014648438 331.181640625 c 0
 295.3515625 345.192382812 299.46875 355.041015625 295.702148438 368.709960938 c 0
 289.764648438 386.6171875 281.341796875 403.25390625 272.399414062 417.35546875 c 0
 257.483398438 440.875976562 241.123046875 457.345703125 232.444335938 460.899414062 c 0
 208.16015625 463.909179688 195.5625 469.54296875 187.874023438 479.228515625 c 0
 179.774414062 489.432617188 177.123046875 504.133789062 172 525 c 0
 169.02734375 536.196289062 167.88671875 548.532226562 167.46875 560.7734375 c 0
 167.326171875 571.87109375 166.97265625 583.250976562 167.23828125 594.453125 c 0
 167.639648438 611.450195312 169.463867188 628.0390625 175.602539062 642.616210938 c 0
 182.211914062 657.994140625 191.918945312 672.013671875 202.104492188 687.172851562 c 0
 211.989257812 698.6328125 222.701171875 711.366210938 232.940429688 722.83984375 c 0
 242.095703125 733.09765625 250.872070312 742.348632812 258.342773438 748.780273438 c 0
 265.23828125 754.555664062 273.756835938 762.203125 286.545898438 764.331054688 c 0
 299.431640625 766.473632812 316.588867188 763.077148438 323.654296875 763.651367188 c 0
 340.951171875 760.966796875 349.840820312 752.61328125 355.802734375 742.69921875 c 0
 361.421875 733.352539062 364.439453125 722.62109375 369.444335938 713.946289062 c 0
 374.806640625 705.268554688 376.428710938 705.399414062 382.5546875 698.375 c 0
 386.086914062 695.758789062 390.223632812 692.006835938 394.063476562 688.5078125 c 0
 397.928710938 684.986328125 401.494140625 681.721679688 403.840820312 680.130859375 c 0
 408.274414062 677.981445312 413.48046875 674.104492188 417.588867188 672.456054688 c 0
 434.205078125 665.790039062 431.258789062 673.465820312 452.374023438 673.092773438 c 0
 475.37109375 674.95703125 466.751953921 663.50505453 487.905273438 663.526367188 c 0
 508.259765625 663.546875 500.551757812 663.079101562 521.71875 662.826171875 c 0
 543.8984375 662.583007812 521.418946028 664.220696968 541.373046875 666.540039062 c 0
 555.4375 668.174804688 565.125976562 669.046875 578.259765625 673.7890625 c 0
 589.71484375 678.818359375 623.7578125 695.388671875 635.9453125 701.251953125 c 0
 651.229492188 708.880859375 679.5390625 708.21875 693.774414062 709.588867188 c 0
 700.036132812 710.125 717.673828125 711.166992188 752.255859375 701.9921875 c 0
 769.521484375 696.177734375 774.615234375 681.084960938 786.233398438 666.638671875 c 0
 797.775390625 651.190429688 803.90234375 634.767578125 806.634765625 618.462890625 c 0
 812.225585938 603.78515625 809.100585938 588.774414062 808.6328125 572.307617188 c 0
 808.0859375 553.05078125 809.016601562 533.931640625 808.970703125 514.55859375 c 0
 808.920898438 493.287109375 811.809570312 466.94140625 808.197265625 449.575195312 c 0
 808.2734375 423.173828125 791.737304688 427.250976562 777.659179688 415.319335938 c 0
 770.396484375 409.163085938 760.868164062 384.147460938 760.743164062 379.138671875 c 0
 756.506835938 359.790039062 751.385742188 340.373046875 746.474609375 322.736328125 c 0
 743.3828125 311.639648438 740.189453125 300.337890625 736.71484375 289.249023438 c 0
 723.798828125 257.715820312 702.6484375 223.120117188 684.854492188 195.583007812 c 0
 679.336914062 187.044921875 673.950195312 179.758789062 668.921875 174.3828125 c 0
 648.984375 152.340820312 630.670898438 135.211914062 608.772460938 126.171875 c 0
 588.284179688 117.712890625 567.521470529 108.484846384 542.116210938 99.1845703125 c 0
 519.379882812 90.861328125 544.599609375 82.2451171875 524.9609375 75.96484375 c 0
 513.6953125 72.36328125 502.236328125 69.1123046875 489.776367188 66.2294921875 c 0
 476.677734375 63.3720703125 499.483003316 60.5963109673 486.76171875 59.076171875 c 0
 465.072265625 56.484375 474.254882812 63.716796875 453.432617188 60.8935546875 c 0
 432.146484375 58.0078125 410.85546875 57.1533203125 388.627929688 62.7333984375 c 0
 379.200195312 65.1943359375 370.451171875 68.6728515625 362.088867188 73.46875 c 0
 349.346679688 80.775390625 337.502929688 91.140625 325.52734375 105.623046875 c 0x60
509.16015625 196.21875 m 1
 511.286132812 196.520507812 513.206054688 196.26953125 515.069335938 196.211914062 c 0
 517.09375 196.149414062 519.051757812 196.313476562 521.137695312 197.66015625 c 0
 523.856445312 199.521484375 526.578125 201.341796875 528.900390625 202.494140625 c 0
 535.099609375 202.602539062 535.22750967 204.677788733 537.1328125 205.708007812 c 0
 540.838867188 207.711914063 565.545898103 222.013537951 571 222 c 0
 574.147460938 221.9921875 622.449450856 289.136401045 625 291 c 0
 627.904296875 293.122070312 641 335 642 341 c 0
 642.436523438 343.619140625 643.872070735 345.616212206 645 349 c 0
 648 358 646.235351562 347.940429688 653 375 c 0
 654 379 659.051806072 389.207224287 663 405 c 0
 666 417 663 432 662 436 c 0
 661.457733337 438.169066652 661 441 660 443 c 0
 660 443 656.999945783 454.999981928 656 458 c 0
 650.596679688 474.2109375 652.269017772 465.526604384 648 480 c 0
 642.706054688 497.948242188 646.474191997 482.644342231 642.706054688 497.948242188 c 0
 639 513 636 525 632.748046875 534.538085938 c 0
 629.788397304 543.218835895 619.217773438 547.125 606.334960938 548.689453125 c 0
 575.109375 545.202148438 545.84375 549.315429688 516.856445312 548.635742188 c 0x60
 513.875 548.943359375 506.666038644 549.454448605 503.784179688 549.50390625 c 0
 499.345703125 549.580078125 539.601383986 546.961431039 535.37890625 546.276367188 c 0xa0
 490.831054688 539.048828125 493.037109375 560.498046875 452.948242188 547.116210938 c 0
 441.391601562 543.421875 433.080078125 532.551757812 428.377929688 521.139648438 c 0
 421.83984375 499.671875 423.306640625 477.5078125 423.624023438 457.54296875 c 0
 423.880859375 441.576171875 424.747070312 416.099609375 425.48046875 393.520507812 c 0
 426.451171875 371.740234375 426.58984375 347.375976562 426.751953125 327.043945312 c 0
 426.869140625 306.493164062 426.440429688 287.9765625 425.904296875 269.0234375 c 0
 425.564453125 256.973632812 425.291992188 244.955078125 425.61328125 228.1640625 c 0
 426.25390625 204.076171875 420 208.475585938 434.396484375 196.473632812 c 0
 446.638671875 189.918945312 433.44391824 176.104710087 443.139648438 174.712890625 c 0
 468.922851562 171.01171875 492.831054688 189.467773438 509.16015625 196.21875 c 1
EndSplineSet
Validated: 524833
EndChar

StartChar: "+BeIFtwXZBbAF3wAA"
Encoding: 22 1506 22
Width: 800
Flags: W
HStem: 126.618 146.838<270.022 354.454>
VStem: 88.543 175.82<366.464 445.08> 422.832 106.168<353.316 559.621>
LayerCount: 2
Fore
SplineSet
165.317382812 84.427734375 m 0
 151.287109375 64.32421875 142.05859375 65.03125 131.4921875 63.689453125 c 0
 114.090820312 55.9990234375 100.672851562 54.4248046875 84.6845703125 49.1474609375 c 0
 75.16015625 46.6669921875 61.5478515625 51.0361328125 56.09375 61.494140625 c 0
 51.4765625 77.40234375 54.02734375 97.6845703125 56.951171875 112.404296875 c 0
 61.7578125 136.038085938 67.7880859375 159.391601562 70.4208984375 166.3125 c 0
 73.92578125 203.147460938 108.920898438 211.098632812 125.176757812 213.271484375 c 0
 127.540039062 213.587890625 129.4140625 214.182617188 130.620117188 215.245117188 c 0
 132.124023438 216.568359375 132.588867188 218.6171875 131.6640625 221.75390625 c 0
 129.997070312 241.916015625 98.150390625 260.719726562 93.1328125 289.456054688 c 0
 95.0205078125 296.7578125 99.7724609375 288.428710938 101.123046875 310.4921875 c 0
 102.711914062 336.438476562 111.454101562 333.001953125 111.825195312 349.283203125 c 1
 116.48046875 360.213867188 108.530273438 373.168945312 98.509765625 387.025390625 c 0
 86.154296875 404.110351562 87.4482421875 391.443359375 88.54296875 409.169921875 c 0
 87.5302734375 417.420898438 75.4208984375 437.677734375 76.392578125 445.453125 c 0
 77.8994140625 456.638671875 85.455078125 467.974609375 93.8544921875 479.346679688 c 0
 102.905273438 491.598632812 110.55078125 507.393554688 115.046875 514.89453125 c 0
 126.063476562 545.989257812 137.013671875 526.850585938 146.220703125 554.90625 c 0
 152.053710938 574.204101562 159.12890625 588.69140625 168.046875 601.572265625 c 0
 168.88671875 602.791015625 169.620117188 603.99609375 170.508789062 604.592773438 c 0
 171.705078125 605.499023438 172.162109375 606.162109375 173.442382812 607.095703125 c 0
 177.282226562 609.897460938 181.7578125 612.915039062 185.708984375 615.80859375 c 0
 186.405273438 616.318359375 187.084960938 616.82421875 187.7421875 617.32421875 c 0
 188.834960938 618.15625 188.873046875 618.450195312 189.811523438 619.2421875 c 0
 193.55859375 621.739257812 197.692382812 624.243164062 200.689453125 627.375 c 0
 201.934570312 628.274414062 203.630859375 628.958984375 205.26953125 629.265625 c 0
 207.265625 629.638671875 209.970703125 628.147460938 210.885742188 627.111328125 c 0
 214.170898438 623.185546875 217.298828125 622.142578125 220.478515625 619.022460938 c 0
 221.055664062 618.45703125 221.633789062 617.823242188 222.21484375 617.091796875 c 0
 222.657226562 616.569335938 223.094726562 616.072265625 223.525390625 615.587890625 c 0
 226.235351562 612.541992188 228.686523438 610.051757812 230.786132812 605.376953125 c 0
 231.102539062 604.176757812 231.392578125 602.971679688 231.65625 601.762695312 c 0
 231.970703125 600.3203125 232.249023438 598.873046875 232.497070312 597.421875 c 0
 234.955078125 582.995117188 234.314453125 568.14453125 235.012695312 554.375 c 0
 238.779296875 519.63671875 249.982421875 478.576171875 265.28125 423.0703125 c 0
 281.95703125 362.571289062 264.486328125 388.341796875 264.36328125 384.1171875 c 0
 265.051757812 380.815429688 265.50390625 377.844726562 265.872070312 374.981445312 c 0
 266.76953125 367.997070312 267.16015625 361.66015625 269.224609375 352.744140625 c 0
 273.913085938 332.5703125 255.9453125 313.482421875 257.564453125 305.01171875 c 1
 271.913085938 310.452148438 267.271484375 279.149414062 282.682617188 273.456054688 c 1
 328.130859375 269.381835938 314.916992188 273.407226562 356.356445312 297.065429688 c 0
 363.5859375 301.298828125 372.162109375 305.932617188 379.7109375 311.28515625 c 0
 387.522460938 316.825195312 394.233398438 331.990234375 397.213867188 339.423828125 c 0
 403.219726562 348.971679688 405.541015625 432.712890625 406.4375 447.434570312 c 0
 405.270507812 460.64453125 413.220703125 471.299804688 414.243164062 480.4453125 c 0
 416.178710938 497.767578125 422.702148438 488.1484375 422.83203125 501.74609375 c 0
 423.177734375 520.85546875 430.693359375 538.749023438 437.08984375 548.885742188 c 0
 462.50390625 589.165039062 500.342773438 608.383789062 529 560 c 1
 550.868164062 492.471679688 521.129882812 518.024414062 527.025390625 463.083007812 c 1
 516.725585938 420.416992188 517.779296875 356.010742188 505.139648438 312.751953125 c 1
 499.47265625 307.982421875 492.674804688 294.4375 492.5546875 278.822265625 c 0
 492.431640625 262.783203125 508.732421875 234.796875 504.651367188 219.00390625 c 0
 493.30078125 175.086914062 457.575195312 137.063476562 442.1796875 127.0234375 c 0
 430.108398438 120.869140625 423.75390625 130.291992188 379.313476562 126.618164062 c 0
 364.814453125 125.419921875 336.311523438 125.203125 312.901367188 124.186523438 c 0
 277.181640625 128.689453125 249.545898438 104.857421875 222.362304688 90.0810546875 c 0
 212.875976562 85.146484375 208.545898438 85.2216796875 202.147460938 90.0390625 c 0
 193.412109375 96.6162109375 190.5 109.7578125 182.745117188 115.543945312 c 0
 179.322265625 118.098632812 178.561523438 119.465820312 175.303710938 118.30078125 c 0
 174.1484375 117.888671875 172.966796875 110.043945312 171.748046875 107.3671875 c 0
 169.293945312 101.782226562 167.712890625 87.8271484375 165.317382812 84.427734375 c 0
EndSplineSet
Validated: 545
EndChar

StartChar: "+BeQFtQW8BdQA +BdcF5AXZBegF1AAA"
Encoding: 23 1507 23
Width: 512
Flags: W
VStem: 367.334 84.4863<154.848 475.383>
LayerCount: 2
Fore
SplineSet
366.807617188 248.25390625 m 0
 366.379882812 255.526367188 366.899414062 269.724609375 367.333984375 285.301757812 c 0
 366.822265625 307.977539062 366.59765625 332.733398438 365.520507812 357.451171875 c 0
 363.59765625 401.602539062 358.956054688 445.6328125 345.103515625 477.4765625 c 0
 342.401367188 482.989257812 328.416015625 526.249023438 325.52734375 531.658203125 c 0
 308.374023438 563.787109375 304.595703125 566.4609375 285.358398438 600.111328125 c 0
 281.514648438 606.681640625 267.390625 632.138671875 256.547851562 645.822265625 c 0
 242.317382812 660.15625 228.252929688 651.159179688 221.331054688 639.2109375 c 0
 205.528320312 617.532226562 188.935546875 609.063476562 183.266601562 587.715820312 c 0
 180.159179688 576.381835938 177.674804688 558.118164062 173.782226562 543.047851562 c 0
 169.727539062 527.3515625 167.72265625 513.330078125 172.92578125 508.6953125 c 0
 184.7109375 499.161132812 226.7421875 492.235351562 233.297851562 479.205078125 c 0
 235.650390625 474.448242188 238.653320312 471.094726562 238.440429688 458.75 c 0
 237.802734375 450.478515625 236.200195312 440.8359375 233.298828125 431.981445312 c 0
 229.6484375 420.837890625 223.94140625 410.943359375 215.517578125 406.608398438 c 0
 186.096679688 404.287109375 140.676757812 403.814453125 115.459960938 418.029296875 c 0
 99.1650390625 430.384765625 91.96875 447.416992188 81.5849609375 465.756835938 c 0
 68.5791015625 482.971679688 64.3466796875 498.299804688 64.423828125 513.143554688 c 0
 73.849609375 561.561523438 78.1201171875 611.846679688 103.909179688 651.576171875 c 0
 125.79296875 684.817382812 157.680664062 710.698242188 182.524414062 746.458984375 c 1
 202.822265625 765.711914062 243.296875 798.12890625 268.418945312 792.724609375 c 0
 278.9375 788.365234375 293.614257812 779.497070312 296.813476562 774.405273438 c 0
 309.626953125 755.00390625 317.533203125 761.331054688 327.49609375 741.224609375 c 0
 336.255859375 723.545898438 343.286132812 727.165039062 351.224609375 701.7578125 c 0
 355.00390625 689.662109375 372.549804688 667.529296875 373.405273438 648.325195312 c 0
 374.231445312 629.77734375 381.19140625 611.055664062 383.9375 603.598632812 c 0
 395.844726562 572.596679688 406.951171875 566.848632812 416.149414062 536.061523438 c 0
 435.790039062 490.251953125 440.909179688 395.188476562 447.2109375 349.91796875 c 0
 445.693359375 341.58203125 452.063476562 263.6328125 451.8203125 255.091796875 c 0
 453.37890625 225.890625 453.237304688 201.18359375 444.16015625 180.013671875 c 0
 437.978515625 165.59375 428.107421875 151.733398438 416.80859375 136.655273438 c 0
 408.439453125 125.438476562 402.458007812 110.48046875 399.037109375 103.959960938 c 0
 385.563476562 78.2734375 363.74609375 85.22265625 356.228515625 85.1552734375 c 0
 347.171875 85.0732421875 338.810546875 87.9443359375 336.953125 114.286132812 c 1
 346.118164062 137.495117188 354.41796875 158.448242188 360 180 c 0
 365.504882812 201.254882812 368.366210938 223.09375 366.807617188 248.25390625 c 0
EndSplineSet
Validated: 545
EndChar

StartChar: "+BeQFtQW8BdQA"
Encoding: 24 1508 24
Width: 600
Flags: W
LayerCount: 2
Fore
SplineSet
130.026367188 165.44921875 m 0
 142.936523438 178.657226562 156.80859375 186.365234375 170.8046875 191.805664062 c 0
 183.478515625 196.733398438 196.255859375 199.801757812 208.512695312 203.4140625 c 0
 215.899414062 205.615234375 227.791015625 208.772460938 234.942382812 209.990234375 c 0
 250.092773438 212.907226562 263.044921875 218.208984375 277.740234375 224.3046875 c 0
 291.662109375 226.146484375 303.756835938 233.984375 315.233398438 243.065429688 c 0
 326.538085938 255.151367188 341.373046875 260.223632812 352.625 270.951171875 c 0
 362.237304688 280.266601562 375.795898438 294.657226562 378.426757812 314.861328125 c 0
 385.025390625 357.0625 389.3984375 366.330078125 385.935546875 404.731445312 c 0
 382.9140625 450.844726562 366.1953125 498.022460938 359.352539062 535.8359375 c 0
 353.60546875 568.919921875 332.975585938 626.153320312 322.151367188 648.041992188 c 0
 318.512695312 654.912109375 305.143554688 691.291015625 294.880859375 705.600585938 c 0
 281.41015625 720.58984375 238.185546875 708.461914062 231.633789062 695.967773438 c 0
 216.67578125 673.297851562 200.96875 664.44140625 195.603515625 642.1171875 c 0
 192.662109375 630.266601562 190.310546875 611.166992188 186.625976562 595.408203125 c 0
 182.788085938 578.994140625 180.889648438 564.331054688 185.815429688 559.484375 c 0
 196.970703125 549.514648438 236.754882812 542.272460938 242.9609375 528.645507812 c 0
 247.712890625 520.818359375 251.680664062 512.415039062 253.805664062 503.71484375 c 0
 255.859375 495.3046875 256.189453125 486.6171875 253.838867188 477.904296875 c 0
 250.3828125 466.250976562 234.104492188 457.263671875 226.130859375 452.73046875 c 0
 198.282226562 450.302734375 155.290039062 449.80859375 131.420898438 464.672851562 c 0
 115.99609375 477.59375 103.747070312 492.685546875 93.9169921875 511.864257812 c 0
 77.2822265625 533.594726562 83.349609375 564.795898438 86.9228515625 587.258789062 c 0
 93.728515625 630.461914062 99.7783203125 673.651367188 120.487304688 708.8984375 c 0
 158.841796875 762.455078125 189.374023438 812.563476562 243.278320312 840.5703125 c 0
 267.366210938 852.95703125 293.249023438 862.27734375 306.1171875 859.21875 c 0
 316.073242188 854.66015625 329.96484375 845.38671875 332.994140625 840.061523438 c 0
 345.123046875 819.7734375 352.606445312 826.390625 362.037109375 805.36328125 c 0
 370.328125 786.876953125 376.982421875 790.661132812 384.497070312 764.09375 c 0
 399.775390625 727.801757812 411.396484375 696.837890625 424.641601562 660.88671875 c 1
 436.455078125 606.881835938 455.729492188 580.703125 462.038085938 529.9375 c 0
 465.189453125 503.452148438 470.799804688 453.528320312 473.607421875 433.313476562 c 0
 479.427734375 397.909179688 481.922851562 360.131835938 480.877929688 330.366210938 c 0
 480.282226562 315.92578125 480.499023438 275.951171875 475.625976562 262.161132812 c 0
 461.5703125 239.409179688 441.8046875 220.794921875 421.330078125 202.278320312 c 0
 396.905273438 180.190429688 350.0078125 149.947265625 323 132 c 0
 281.487304688 104.93359375 263.3046875 96.2421875 222.600585938 78.421875 c 0
 190.9375 67.052734375 160.26171875 54.3369140625 133.043945312 51.287109375 c 0
 122.485351562 50.84765625 102.9609375 65.9052734375 99.796875 74.6796875 c 0
 95.587890625 85.89453125 94.8798828125 93.029296875 96.1552734375 100.014648438 c 0
 99.4482421875 112.053710938 103.086914062 122.893554688 107.69140625 132.8046875 c 0
 113.31640625 144.909179688 120.383789062 155.627929688 130.026367188 165.44921875 c 0
EndSplineSet
Validated: 545
EndChar

StartChar: "+BeYFuAXTBbUFvAXn +BdcF5AXZBegF1AAA"
Encoding: 25 1509 25
Width: 800
Flags: W
VStem: 131.346 120.963<662.316 774.061> 309.005 71.9893<88.1359 321.876> 446.987 111.058<696.556 764.341>
LayerCount: 2
Fore
SplineSet
131.345703125 682.989257812 m 0
 124.775390625 700.715820312 131.685546875 729.106445312 133.252929688 742.791992188 c 0
 134.45703125 756.296875 136.876953125 767.926757812 143.651367188 784.078125 c 0
 163.25 817.317382812 181.83984375 821.512695312 211.188476562 796.764648438 c 0
 229.65234375 780.404296875 239.53515625 756.903320312 247.59765625 738.8828125 c 0
 252.250976562 727.73046875 249.681640625 713.130859375 252.30859375 702.051757812 c 0
 262.669921875 673.692382812 276.434570312 637.219726562 300.591796875 618.245117188 c 0
 308.266601562 612.553710938 318.46875 621.086914062 323.353515625 625.993164062 c 0
 360.237304688 651.610351562 417.21484375 650.114257812 447.659179688 679.512695312 c 1
 446.969726562 689.303710938 445.470703125 699.193359375 446.987304688 708.825195312 c 0
 450.458007812 728.548828125 460.24609375 754.146484375 474.422851562 771.063476562 c 0
 483.203125 781.873046875 495.12890625 787.963867188 508.043945312 791.40234375 c 0
 520.094726562 794.565429688 531.677734375 795.287109375 538.501953125 794.9921875 c 0
 555.502929688 789.415039062 557.702148438 778.731445312 558.044921875 767.709960938 c 0
 559.014648438 754.826171875 555.568359375 739.52734375 562.971679688 732.274414062 c 0
 571.063476562 725.774414062 571.641601562 719.15234375 569.96484375 710.35546875 c 0
 568.0703125 701.313476562 575.1015625 698.447265625 582.805664062 695.618164062 c 0
 595.881835938 690.6015625 594.991210938 683.912109375 603.875 676.091796875 c 0
 612.205078125 668.7890625 624.036132812 659.87109375 626.046875 655.072265625 c 0
 629.147460938 649.068359375 629.682617188 643.52734375 629.321289062 637.823242188 c 0
 628.640625 626.268554688 624.4921875 616.766601562 621.2109375 605.5 c 0
 619.76953125 600.877929688 616.20703125 597.66015625 613.919921875 593.223632812 c 0
 605.66015625 577.397460938 561.73828125 576.279296875 543.056640625 574.947265625 c 0
 525.543945312 573.698242188 507.392578125 578.282226562 495.991210938 587.694335938 c 0
 489.173828125 595.568359375 466.3203125 597.818359375 447.387695312 593.68359375 c 0
 438.00390625 593.40625 428.87109375 592.134765625 419.9765625 590.110351562 c 0
 403.794921875 582.734375 384.090820312 578.15625 370.263671875 571.287109375 c 0
 358.84375 565.494140625 347.865234375 559.125 337.296875 552.879882812 c 0
 325.282226562 545.671875 320.983398438 539.528320312 323.864257812 529.448242188 c 0
 339.470703125 468.569335938 351.477539062 400.184570312 361.720703125 346.471679688 c 0
 364.764648438 330.643554688 367.733398438 314.80859375 370.443359375 298.931640625 c 0
 372.786132812 285.200195312 374.935546875 271.4375 376.772460938 257.619140625 c 0
 378.483398438 244.741210938 379.922851562 231.814453125 380.994140625 218.821289062 c 0
 383.693359375 186.067382812 373.556640625 152.88671875 370.021484375 118.975585938 c 0
 366.979492188 94.53125 350.33984375 75.2763671875 343.107421875 70.259765625 c 0
 331.173828125 61.982421875 312.840820312 59.46484375 309.004882812 85.638671875 c 1
 310.04296875 128.185546875 308.227539062 168.979492188 304.0546875 209.217773438 c 0
 302.6171875 223.078125 300.900390625 236.872070312 298.923828125 250.649414062 c 0
 296.993164062 264.109375 294.814453125 277.553710938 292.407226562 291.026367188 c 0
 289.678710938 306.295898438 286.657226562 321.603515625 283.369140625 337.015625 c 0
 280.162109375 352.049804688 276.700195312 367.18359375 273.01171875 382.478515625 c 0
 269.237304688 398.12890625 265.224609375 413.947265625 261 430 c 0
 247.501953125 478.185546875 226.430664062 518.92578125 210.383789062 562.0234375 c 1
 194.130859375 585.615234375 183.377929688 624.0703125 164.005859375 650.38671875 c 0
 157.887695312 658.69921875 150.909179688 665.799804688 142.626953125 670.838867188 c 0
 136.809570312 673.345703125 133.241210938 677.977539062 131.345703125 682.989257812 c 0
EndSplineSet
Validated: 545
EndChar

StartChar: "+BeYFuAXTBbUFvAXn"
Encoding: 26 1510 26
Width: 800
Flags: W
VStem: 294.566 105.824<358.844 418.894> 323.81 119.043<213.987 361.145>
LayerCount: 2
Fore
SplineSet
76.7939453125 49.0849609375 m 2x40
 56.16015625 50.9765625 46.447265625 65.7392578125 36.6982421875 73.0341796875 c 0
 17.0458984375 97.720703125 92.3974609375 134.93359375 107.6875 145.15234375 c 1
 144.19140625 158.294921875 188.737304688 186.258789062 224.1640625 193.734375 c 0
 232.018554688 195.541015625 239.580078125 195.428710938 246.965820312 196.192382812 c 0
 259.114257812 197.447265625 271.374023438 199.958984375 282.767578125 199.2421875 c 0
 287.08984375 198.973632812 291.25 199.443359375 296.513671875 203.294921875 c 0
 304.923828125 209.530273438 312.978515625 220.056640625 316.182617188 225.248046875 c 0
 324.434570312 237.375 324.057617188 238.234375 323.809570312 248.556640625 c 0x40
 323.654296875 255.017578125 322.633789062 262.588867188 321.54296875 265.381835938 c 0
 311.0625 299.134765625 316.736328125 337.120117188 301.109375 365.151367188 c 0
 296.690429688 372.916015625 294.391601562 379.9609375 294.56640625 385.196289062 c 0
 294.791992188 391.932617188 293.256835938 394.796875 285.294921875 402.497070312 c 0
 280.046875 407.571289062 275.752929688 412.5078125 275.752929688 413.46484375 c 0
 275.752929688 414.422851562 272.311523438 418.881835938 268.10546875 423.375 c 0
 259.97265625 432.064453125 253.018554688 443.58984375 253.018554688 448.380859375 c 0
 253.018554688 449.9765625 249.487304688 456.53125 245.170898438 462.9453125 c 0
 240.85546875 469.359375 236.703125 477.65234375 235.9453125 481.375 c 0
 235.186523438 485.096679688 233.647460938 490.1015625 232.526367188 492.49609375 c 0
 225.103515625 508.342773438 216.662109375 532.7265625 216.653320312 538.34375 c 0
 216.631835938 551.984375 207.51171875 578.875976562 199.796875 588.047851562 c 0
 186.6171875 622.247070312 144.166992188 651.748046875 136.651367188 682.248046875 c 1
 145.4375 740.159179688 199.588867188 767.086914062 241.837890625 771.590820312 c 0
 257.453125 770.043945312 257.91015625 753.349609375 263 744 c 0
 278.165039062 710.533203125 327.733398438 679.919921875 324.768554688 649.549804688 c 0
 323.950195312 644.646484375 321.614257812 638.872070312 319.578125 636.717773438 c 0
 315.216796875 632.104492188 315.012695312 624.888671875 318.58203125 601.48828125 c 0
 321.52734375 582.180664062 328.348632812 566.733398438 337.03125 559.711914062 c 0
 340.215820312 557.13671875 344.8671875 549.926757812 347.368164062 543.690429688 c 0
 349.869140625 537.454101562 353.88671875 531.338867188 356.296875 530.099609375 c 0
 362.151367188 527.090820312 388.943359375 529.372070312 397.467773438 533.60546875 c 0
 420.0390625 536.837890625 436.447265625 559.91015625 452.544921875 569.762695312 c 0
 459.518554688 574.584960938 468.34765625 573.837890625 475.254882812 577.198242188 c 0
 501.670898438 593.69140625 507.678710938 628.33984375 513.49609375 655.758789062 c 0
 514.255859375 659.350585938 514.7890625 664.583007812 514.681640625 667.38671875 c 0
 500.634765625 720.412109375 516.197265625 741.293945312 534.47265625 771.430664062 c 0
 542.530273438 786.766601562 551.359375 801.048828125 567.013671875 809.126953125 c 0
 585.732421875 818.62109375 608.470703125 820.583984375 619.609375 820.110351562 c 0
 644.849609375 811.97265625 640.243164062 793.711914062 641.243164062 778.169921875 c 0
 641.489257812 772.30859375 639.28125 767.783203125 639.978515625 761.551757812 c 0
 642.743164062 736.836914062 644.829101562 710.7890625 647.560546875 693.592773438 c 0
 648.077148438 689.6875 650.06640625 683.331054688 651.981445312 679.466796875 c 0
 653.895507812 675.603515625 656.916992188 664.462890625 658.6953125 654.711914062 c 0
 660.473632812 644.959960938 662.908203125 635.818359375 664.10546875 634.397460938 c 0
 666.713867188 631.302734375 672.96875 611.02734375 674.740234375 599.923828125 c 0
 676.76171875 593.20703125 681.162109375 584.833007812 684.489257812 577.029296875 c 0
 687.877929688 570.578125 688.462890625 564.625 688.068359375 558.495117188 c 0
 689.438476562 549.9296875 686.365234375 543.471679688 682.765625 537.661132812 c 0
 675.442382812 529.057617188 675.041992188 519.38671875 670.420898438 510.576171875 c 0
 661.392578125 493.572265625 641.764648438 485.009765625 621.342773438 483.578125 c 0
 602.19921875 482.236328125 582.357421875 487.161132812 569.89453125 497.274414062 c 0
 562.442382812 505.734375 537.459960938 508.15234375 516.764648438 503.709960938 c 0
 507.868164062 501.551757812 499.6953125 497.997070312 491.124023438 496.778320312 c 0
 460.36328125 496.926757812 441.038085938 496.650390625 421.5078125 477.182617188 c 0
 415.379882812 471.096679688 408.610351562 465.286132812 407.091796875 465.286132812 c 0
 402.896484375 465.286132812 400.576171875 452.145507812 400.390625 427.33203125 c 0x80
 400.237304688 406.932617188 401.018554688 399.611328125 403.892578125 394.5390625 c 0
 418.810546875 354.674804688 451.624023438 329.587890625 448.106445312 284.55859375 c 0
 447.091796875 273.211914062 445.168945312 258.799804688 443.834960938 252.53125 c 0
 442.024414062 247.09375 443.122070312 241.239257812 442.852539062 235.939453125 c 0
 438.704101562 228.0546875 443.280273438 217.416015625 442.353515625 213.8125 c 0
 437.952148438 198.553710938 431.598632812 186.409179688 420.797851562 177.009765625 c 0
 406.228515625 164.5703125 369.130859375 146.444335938 353.891601562 144.319335938 c 0
 347.802734375 143.469726562 340.555664062 141.381835938 337.786132812 139.6796875 c 0
 335.016601562 137.9765625 330.793945312 136.583984375 328.40234375 136.583984375 c 0
 326.009765625 136.583984375 322.698242188 135.020507812 321.04296875 133.110351562 c 0
 246.081054688 125.494140625 181.399414062 60.896484375 119.393554688 50.5546875 c 0
 86.5458984375 47.6630859375 78.7763671875 47.39453125 76.7939453125 49.0849609375 c 2x40
EndSplineSet
Validated: 545
EndChar

StartChar: "+BecF1QW5BeMA"
Encoding: 27 1511 27
Width: 900
Flags: W
VStem: 562 70<572.509 681.648>
LayerCount: 2
Fore
SplineSet
350 64 m 0
 335 131 331 206 314 272 c 0
 305 308 298 343 289 378 c 0
 274 442 262 499 238 549 c 0
 233 558 229 565 221 567 c 0
 216 566 210 566 205 566 c 0
 184 564 166 547 150 546 c 0
 128 544 126 544 121 550 c 0
 116 558 116 561 125 576 c 0
 130 586 132 590 132 597 c 0
 130 604 131 610 132 617 c 0
 133 622 134 627 136 632 c 0
 138 638 141 643 144 646 c 0
 148 649 153 651 160 651 c 0
 168 654 172 659 174 665 c 0
 177 674 180 683 182 691 c 0
 184 697 187 704 189 710 c 0
 193 722 197 733 200 744 c 0
 202 750 204 756 206 762 c 0
 208 771 211 780 215 788 c 0
 217 792 218 796 220 799 c 0
 222 804 225 812 229 817 c 0
 233 823 236 816 238 808 c 0
 241 800 245 790 247 787 c 0
 248 783 250 779 250 778 c 0
 252 776 255 773 257 770 c 0
 260 766 266 760 269 757 c 0
 274 750 281 740 285 733 c 0
 292 722 294 715 301 707 c 0
 307 699 317 701 330 708 c 0
 336 711 341 713 343 713 c 0
 345 713 351 716 356 719 c 0
 408 739 452 756 500 775 c 1
 551 785 597 803 645 816 c 0
 649 818 654 813 655 807 c 0
 655 804 657 796 658 790 c 0
 662.839567478 762.898422121 677.047700308 741.417983452 677.047700308 721.024703575 c 0
 677.047700308 720.348662725 677.032086504 719.67381659 677 719 c 0
 677 710 670 702 662 700 c 0
 642 688 636 663 633 637 c 0
 633 632 632 627 632 622 c 0
 630 601 629 581 622 568 c 0
 613 553 599 554 589 542 c 0
 576 529 566 516 556 503 c 0
 549 492 542 481 533 473 c 0
 527 468 522 464 519 458 c 0
 510 442 501 433 495 433 c 0
 482 427 464 419 454 412 c 0
 451 410 448 408 445 406 c 0
 441 404 437 403 434 403 c 0
 432 404 431 406 430 407 c 0
 428 409 428 412 429 414 c 0
 430 416 432 421 434 423 c 0
 436 426 437 427 439 430 c 0
 449 447 454 473 465 486 c 0
 491 515 526 547 543 578 c 0
 551 591 553 604 556 617 c 0
 559 632 562 648 562 661 c 0
 560 681 551 681 537 682 c 0
 529.494446501 682.577350269 522.655559668 683.154700538 515.521089053 683.154700538 c 0
 510.298294078 683.154700538 504.917096231 682.845299462 499 682 c 0
 460 677 421 657 389 646 c 0
 384 644 373 639 365 636 c 0
 354 633 348 626 348 615 c 0
 355 548 365 477 379 417 c 0
 389 374 396 331 407 291 c 0
 419 238 427 192 434 140 c 0
 434.5 128.5 436 115.75 436 103.5 c 0
 436 91.25 434.5 79.5 429 70 c 0
 424 62 412 50 406 54 c 0
 405 55 403 56 401 56 c 0
 400 57 397 56 395 56 c 0
 390 55 389 54 388 53 c 0
 388 53 387 51 386 49 c 0
 382 45 378 47 374 46 c 0
 361 42 351 48 350 64 c 0
EndSplineSet
Validated: 513
EndChar

StartChar: "+BegF1QW5BekFwQAA"
Encoding: 28 1512 28
Width: 700
Flags: W
HStem: 465.788 186.782<155.94 401.249>
VStem: 12.8418 133.792<661.478 744.477> 571.663 104.611<179.314 317.102>
LayerCount: 2
Fore
SplineSet
56.708984375 769.470703125 m 0
 81.4365234375 802.931640625 113.419921875 821.3671875 138.127929688 806.030273438 c 0
 144.298828125 800.971679688 148.004882812 761.53515625 146.633789062 715.508789062 c 0
 146.369140625 706.596679688 146.252929688 700.266601562 146.271484375 695.770507812 c 0
 147.127929688 683.748046875 152.532226562 678.290039062 161.825195312 668.30078125 c 0
 165.158203125 664.751953125 168.993164062 661.345703125 173 658.53515625 c 0
 182.33203125 652.029296875 187.821289062 651.403320312 193.3828125 652.5703125 c 0
 203.750976562 656.194335938 346.08984375 653.986328125 379.578125 666.697265625 c 0
 411.4140625 678.78125 451.532226562 693.8046875 460.686523438 697.127929688 c 0
 468.943359375 699.3671875 478.708984375 701.266601562 488.373046875 702.586914062 c 0
 498.083007812 703.913085938 507.689453125 704.654296875 515.561523438 704.56640625 c 0
 527.177734375 704.564453125 536.439453125 703.21875 547.383789062 701.435546875 c 0
 565.993164062 698.240234375 580.703125 681.879882812 589.924804688 672.233398438 c 0
 600.295898438 661.385742188 607.076171875 643.034179688 613.770507812 617.938476562 c 0
 627.228515625 567.38671875 639.162109375 515.880859375 649.360351562 463.877929688 c 0
 660.404296875 407.568359375 660.408203125 443.720703125 667.1171875 386.828125 c 0
 671.991210938 347.31640625 676.625 308.1875 676.274414062 270.76953125 c 0
 674.079101562 239.85546875 677.388671875 205.931640625 667 178 c 0
 659.076171875 156.693359375 640.119140625 138.874023438 622.750976562 128.534179688 c 0
 588.0859375 115.897460938 575.432617188 119.1875 571.663085938 131.124023438 c 1
 575.3359375 189.067382812 563.491210938 243.635742188 554.747070312 298.961914062 c 0
 551.73828125 309.532226562 547.377929688 322.99609375 543.211914062 335.569335938 c 0
 539.463867188 346.8828125 535.873046875 357.475585938 533.567382812 364.591796875 c 0
 530.552734375 376.4765625 525.499023438 397.897460938 522.74609375 409.83984375 c 0
 522.05078125 425.588867188 517.6015625 436.826171875 512.499023438 447.350585938 c 0
 508.779296875 455.0234375 504.711914062 462.31640625 501.498046875 470.701171875 c 0
 499.35546875 478.529296875 497.796875 486.958007812 493.190429688 493.056640625 c 0
 488.732421875 498.958984375 481.3359375 502.662109375 472.767578125 502.521484375 c 0
 465.541992188 502.112304688 458.015625 498.961914062 451.033203125 495.079101562 c 0
 432.702148438 484.819335938 407.719726562 473.7734375 385.697265625 467.752929688 c 0
 356 459.633789062 214.951171875 469.20703125 205.662109375 470.017578125 c 0
 182.467773438 465.413085938 162.62890625 465.611328125 141.588867188 465.788085938 c 0
 139.997070312 465.794921875 133.0546875 465.298828125 125.874023438 466.629882812 c 0
 123.500976562 467.138671875 121.473632812 467.514648438 119.384765625 467.948242188 c 0
 115.729492188 469.071289062 112.174804688 469.59375 108.771484375 469.345703125 c 0
 106.145507812 469.154296875 103.610351562 468.502929688 101.188476562 467.314453125 c 0
 98.6796875 466.099609375 96.56640625 465.776367188 93.5947265625 465.477539062 c 0
 85.619140625 463.525390625 80.25390625 463.787109375 75.7548828125 465.184570312 c 0
 69.5625 467.108398438 65.01171875 471.185546875 57.55859375 474.604492188 c 0
 46.4306640625 479.416992188 36.5322265625 491.7421875 27.390625 509.67578125 c 0
 13.1357421875 538.061523438 13.7158203125 582.80859375 12.841796875 614.696289062 c 0
 12.23046875 640.868164062 10.69140625 679.514648438 13.8037109375 705.168945312 c 0
 17.2275390625 727.89453125 23.7314453125 733.581054688 30.4345703125 737.725585938 c 1
 36.896484375 750.411132812 49.96875 760.71484375 56.708984375 769.470703125 c 0
EndSplineSet
Validated: 545
EndChar

StartChar: "+BekFtAXBBdkF3wAA"
Encoding: 29 1513 29
Width: 1000
Flags: W
VStem: 130.531 123.348<367.446 478.027>
LayerCount: 2
Fore
SplineSet
86.6865234375 709.169921875 m 0
 91.6376953125 731.2734375 100.422851562 750.733398438 115.53515625 763.630859375 c 0
 121.616210938 768.8203125 128.72265625 772.948242188 137.016601562 775.756835938 c 0
 152.385742188 780.872070312 169.918945312 781.418945312 186.94140625 781.221679688 c 0
 207.403320312 776.701171875 219.485351562 767.46875 226.673828125 755.323242188 c 0
 234.193359375 742.6171875 236.357421875 726.724609375 237.158203125 709.705078125 c 0
 239.2734375 675.616210938 247.418945312 614.286132812 242.870117188 581.125976562 c 0
 239.94140625 559.768554688 224.678710938 541.430664062 243.075195312 543.107421875 c 0
 248.055664062 546.764648438 270.241210938 553.682617188 275.12109375 557.567382812 c 0
 299.772460938 581.883789062 303.56640625 624.958007812 315.391601562 659.453125 c 1
 323.408203125 697.278320312 336.271484375 727.368164062 361.6015625 751.116210938 c 0
 380.979492188 768.306640625 404.770507812 790.262695312 428.987304688 786.522460938 c 1
 456.278320312 777.44140625 482.244140625 764.249023438 482.639648438 734.064453125 c 0
 482.618164062 724.4453125 474.151367188 710.653320312 474.258789062 699.487304688 c 0
 464.807617188 658.532226562 455.520507812 623.96875 412.879882812 593 c 0
 399.681640625 583.4140625 393.42578125 565.46484375 389.81640625 555.755859375 c 0
 382.569335938 536.266601562 380.435546875 518.6875 359.750976562 511.68359375 c 0
 344.798828125 507.24609375 341.813476562 505.71484375 323.5625 497.271484375 c 0
 317.259765625 491.591796875 287.276367188 481.833007812 275.737304688 477.8359375 c 0
 264.616210938 473.984375 255.762695312 468.151367188 253.87890625 464.313476562 c 0
 251.721679688 431.969726562 251.053710938 396.791992188 254.96875 365.999023438 c 0
 255.0703125 364.80078125 268.063476562 351.924804688 282.729492188 357.7890625 c 0
 307.255859375 373.9921875 327.57421875 392.040039062 347.361328125 410.017578125 c 0
 374.1171875 434.325195312 395.740234375 435.619140625 429.637695312 454.920898438 c 0
 469.497070312 476.489257812 502.432617188 488.69921875 520.034179688 501.788085938 c 0
 558.62109375 525.029296875 551.673828125 514.46875 600.9765625 533.610351562 c 0
 630.267578125 544.982421875 673.169921875 544.19921875 681.301757812 565.849609375 c 0
 687.580078125 583.580078125 699.123046875 625.2578125 701.625976562 644.551757812 c 0
 703.260742188 674.112304688 714.90625 703.333984375 730.943359375 724.16015625 c 0
 746.352539062 742.508789062 763.872070312 743.13671875 778.040039062 748.095703125 c 0
 788.392578125 751.146484375 790.698242188 752.84765625 800.646484375 752.418945312 c 0
 812.333984375 750.0546875 823.907226562 744.096679688 833.7109375 736.099609375 c 0
 844.536132812 727.268554688 853.205078125 715.951171875 857.48828125 704.241210938 c 0
 861.62890625 692.537109375 863.352539062 679.643554688 864.12109375 666.500976562 c 0
 864.713867188 655.27734375 863.55859375 644.333984375 860.56640625 629.689453125 c 0
 859.055664062 601.872070312 818.526367188 539.619140625 802.48828125 520.975585938 c 0
 789.084960938 507.744140625 780.4921875 491.427734375 767.022460938 480.310546875 c 0
 755.327148438 470.73828125 728.599609375 461.784179688 717.51953125 450.73046875 c 0
 685.47265625 427.266601562 676.540039062 403.326171875 635 387 c 1
 590.3359375 360.87109375 550.618164062 343.421875 503.565429688 323.592773438 c 1
 457.997070312 315.663085938 426.72265625 303.96484375 382.65625 288.65234375 c 0
 365.225585938 282.53515625 348.661132812 275.208984375 333.62109375 263.658203125 c 0
 321.034179688 253.923828125 309.41015625 243.13671875 298.888671875 231.548828125 c 0
 286.1953125 217.493164062 275.211914062 203.3828125 266.791992188 193.020507812 c 0
 264.703125 190.657226562 252.23046875 180.538085938 246.501953125 174.163085938 c 1
 236.336914062 172.3359375 158.950195312 170.3203125 152.28515625 174.399414062 c 0
 149.901367188 175.987304688 149.592773438 177.217773438 147.666992188 179.779296875 c 0
 143.201171875 200.866210938 139.915039062 237.795898438 139.915039062 237.795898438 c 2
 140.416015625 216.795898438 136.272460938 279.544921875 133.405273438 303.280273438 c 0
 114.310546875 395.927734375 126.745117188 484.619140625 130.53125 567.48828125 c 0
 127.900390625 574.411132812 125.654296875 582.06640625 122.901367188 589.509765625 c 0
 119.736328125 597.979492188 118.495117188 596.908203125 116.108398438 601.640625 c 0
 96.0400390625 628.108398438 98.953125 643.517578125 90.6884765625 663.666992188 c 0
 83.4501953125 681.646484375 82.7802734375 691.564453125 86.6865234375 709.169921875 c 0
EndSplineSet
Validated: 545
EndChar

StartChar: "+BeoFtwW8BdAF1QW8"
Encoding: 30 1514 30
Width: 1042
Flags: W
VStem: 202.781 136.497<366.336 550.025> 212.311 125.927<491.064 584.234> 668.145 125.407<226.24 436.2> 677.846 124.997<244.578 361.363>
LayerCount: 2
Fore
SplineSet
214.1171875 262.639648438 m 0x80
 217.7265625 275.069335938 224.981445312 293.153320312 223.528320312 329.529296875 c 0
 223.799804688 371.393554688 207.053710938 374.526367188 204.26953125 412.919921875 c 1
 195.423828125 425.791992188 206.564453125 491.815429688 202.78125 507.170898438 c 0x80
 195.6875 520.987304688 202.1796875 534.682617188 204.720703125 548.426757812 c 0
 207.990234375 565.833984375 214.143554688 581.422851562 212.310546875 604.198242188 c 0
 210.041015625 628.5546875 161.7734375 658.780273438 153.9921875 681.23828125 c 0
 148.646484375 695.818359375 148.198242188 696.423828125 145.6171875 707.270507812 c 0
 143.655273438 715.512695312 144.133789062 720.131835938 145.678710938 725.326171875 c 0
 146.470703125 727.989257812 147.543945312 730.803710938 148.711914062 734.334960938 c 0
 157.65234375 763.405273438 149.75 747.494140625 161.09765625 771.743164062 c 0
 162.08203125 773.881835938 162.787109375 776.0859375 163.037109375 778.626953125 c 0
 165.431640625 788.03515625 176.067382812 793.905273438 182.52734375 796.797851562 c 0
 196.5625 803.08203125 199.655273438 805.532226562 222.209960938 808.919921875 c 0
 238.048828125 811.08203125 292.517578125 809.29296875 300.791992188 797.779296875 c 0
 316.930664062 772.52734375 324.06640625 762.373046875 325.048828125 742.717773438 c 0
 329.541015625 731.907226562 335.153320312 721.712890625 342.805664062 714.032226562 c 0
 350.46875 706.33984375 357.509765625 703.952148438 370.185546875 703.208984375 c 1
 376.76953125 706.8671875 386.381835938 707.264648438 393.595703125 710.029296875 c 0
 412.749023438 715.452148438 474.092773438 770.1796875 495.659179688 773.924804688 c 0
 552.381835938 783.775390625 613.825195312 784.450195312 660.924804688 758.188476562 c 0
 666.813476562 754.905273438 681.672851562 730.970703125 687.075195312 726.810546875 c 0
 707.274414062 706.887695312 697.340820312 671.322265625 710.87890625 648.610351562 c 0
 724.099609375 628.28515625 712.021484375 606.840820312 722.53125 586.811523438 c 0
 729.884765625 572.796875 736.202148438 558.837890625 740.95703125 544.9140625 c 0
 742.754882812 538.625976562 753.013671875 515.370117188 754.451171875 510.021484375 c 0
 776.522460938 427.947265625 761.139648438 458.439453125 772.922851562 432.969726562 c 0
 793.109375 388.899414062 793.551757812 362.49609375 793.551757812 326.625 c 0x60
 794.051757812 294.071289062 802.842773438 276.302734375 802.842773438 243.821289062 c 0
 805.209960938 226.748046875 799.21875 214.494140625 797.548828125 201.900390625 c 1
 789.961914062 195.844726562 785.838867188 190.688476562 779.971679688 185.6328125 c 0
 777.434570312 183.4453125 774.5703125 181.27734375 770.958984375 179.063476562 c 0
 771.106445312 176.01953125 763.611328125 173.866210938 759.7109375 172.33203125 c 0
 749.177734375 168.188476562 732.122070312 168.561523438 714.54296875 168.115234375 c 0
 707.922851562 168.5546875 671.366210938 173.3515625 666.8984375 176.096679688 c 0
 654.1484375 183.930664062 652.930664062 207.802734375 658.362304688 225.784179688 c 0
 661.34765625 235.669921875 676.065429688 235.483398438 676.369140625 244.311523438 c 0
 676.575195312 250.282226562 677.590820312 238.114257812 677.845703125 243.228515625 c 0x10
 679.4140625 247.561523438 675.653320312 267.229492188 672.512695312 281.01953125 c 0
 668.754882812 291.734375 668.295898438 303.826171875 668.14453125 313.935546875 c 0
 667.953125 327.4296875 654.547851562 356.60546875 654.924804688 366.541992188 c 0
 655.610351562 382.120117188 653.743164062 398.9140625 652.520507812 411.047851562 c 0
 650.608398438 419.676757812 648.803710938 420.67578125 650.299804688 428.625 c 0
 652.9140625 442.599609375 652.245117188 448.262695312 641.775390625 454.235351562 c 0
 627.875976562 462.166992188 630.12109375 462.969726562 624.841796875 483.46875 c 0
 624.28515625 484.796875 623.7109375 486.182617188 623.129882812 487.594726562 c 0
 621.454101562 491.666992188 619.723632812 495.962890625 618.216796875 499.74609375 c 0
 616.936523438 502.9609375 615.817382812 505.8046875 615.030273438 507.829101562 c 0
 613.962890625 510.612304688 611.57421875 518.211914062 610.416992188 521.354492188 c 0
 597.03125 545.51171875 629.372070312 610.608398438 604.56640625 625.913085938 c 0
 595.744140625 627.978515625 579.141601562 635.7890625 564.002929688 632.526367188 c 0
 549.803710938 626.063476562 535.482421875 619.299804688 521.358398438 612.430664062 c 0
 501.66015625 602.849609375 482.34765625 593.061523438 464.293945312 583.594726562 c 0
 448.540039062 575.447265625 433.587890625 570.17578125 421.471679688 575.078125 c 0
 407.956054688 581.372070312 366.200195312 597.750976562 358.668945312 594.924804688 c 0
 352.076171875 592.399414062 346.848632812 589.212890625 343.75390625 585 c 0
 336.045898438 568.50390625 339.125976562 562.5078125 338.237304688 551.006835938 c 0x60
 338.838867188 530.032226562 340.565429688 510.995117188 339.278320312 490.084960938 c 1
 349.4375 474.22265625 345.102539062 401.739257812 352.755859375 384.452148438 c 0
 362.0546875 363.446289062 374.626953125 342.103515625 379.291015625 322.166992188 c 0
 379.02734375 307.0859375 383.17578125 282.427734375 384 267 c 0
 386.302734375 223.907226562 418.040039062 184.634765625 410.42578125 146.1484375 c 0
 407.904296875 143.76171875 409.953125 123.915039062 407.380859375 121.5546875 c 0
 393.229492188 108.34375 396.659179688 117.41015625 391.858398438 110.143554688 c 0
 388.764648438 105.4609375 386.569335938 104.247070312 377.879882812 97.28515625 c 0
 369.780273438 90.8115234375 362.5390625 83.9208984375 356.541992188 76.6044921875 c 0
 348.420898438 65.7412109375 322.677734375 71.9462890625 313.62890625 69.2353515625 c 0
 298.859375 64.810546875 294.896484375 73.9951171875 273.280273438 76.72265625 c 0
 253.666992188 79.369140625 231.225585938 75.828125 215.014648438 85.30859375 c 0
 211.4296875 87.55859375 208.09765625 90.591796875 205.052734375 94.8544921875 c 0
 194.182617188 110.108398438 175.579101562 144.705078125 182.837890625 163.984375 c 1
 181.239257812 179.52734375 173.365234375 199.017578125 177.234375 212.749023438 c 1
 175.573242188 223.754882812 186.407226562 234.905273438 200.084960938 238.532226562 c 0
 207.975585938 240.264648438 212.08984375 254.267578125 214.1171875 262.639648438 c 0x80
EndSplineSet
Validated: 545
EndChar

StartChar: Separator
Encoding: 32 67871 31
Width: 1024
Flags: W
HStem: 795.144 57.2588<361.911 466.099>
VStem: 262.213 71.2295<222.177 695.984> 635.747 71.9336<225.062 704.482>
LayerCount: 2
Fore
SplineSet
606.264648438 776.360351562 m 4
 622.486328125 675.939453125 633.505859375 566.760742188 635.747070312 462.26953125 c 4
 638.557617188 331.206054688 638.875 209.78125 607 120 c 5
 588.771484375 82.326171875 504.075195312 97.8388671875 475.26171875 101.797851562 c 5
 384.744140625 96.2548828125 365.501953125 87.4404296875 360.86328125 122.0078125 c 4
 350.001953125 211.778320312 338.849609375 333.651367188 333.442382812 460.08984375 c 5
 369.014648438 565.90625 322.010742188 694.388671875 361.379882812 785.879882812 c 5
 372.137695312 787.973632812 419.668945312 793.264648438 462.081054688 795.143554688 c 4
 474.052734375 795.673828125 483.353515625 800.459960938 493.567382812 800.297851562 c 4
 504.6328125 800.122070312 517.569335938 795.071289062 527.6328125 794.287109375 c 4
 571.07421875 790.897460938 603.150390625 782.627929688 606.264648438 776.360351562 c 4
466.586914062 854.856445312 m 5
 457.083007812 841.03515625 389.661132812 851.040039062 344.244140625 852.40234375 c 4
 324.744140625 852.987304688 297.982421875 847.451171875 292.921875 842.280273438 c 4
 289.182617188 831.125976562 288.034179688 812.889648438 284.918945312 801.022460938 c 4
 263.225585938 718.370117188 265.015625 626.5546875 262.212890625 458.712890625 c 4
 260.379882812 348.9921875 263.51953125 196.307617188 287.100585938 104.231445312 c 4
 289.3984375 89.640625 293.416015625 77.908203125 298.8203125 68.482421875 c 4
 307.470703125 53.39453125 319.676757812 44.216796875 334.077148438 38.6826171875 c 4
 370.74609375 24.5908203125 432.967773438 36.38671875 475.655273438 32.111328125 c 4
 542.46484375 24.87890625 598.078125 17.9951171875 640.841796875 45.6904296875 c 4
 650.200195312 51.751953125 658.401367188 59.3603515625 665.190429688 68.8271484375 c 4
 673.291015625 80.125 679.381835938 94.0693359375 683.029296875 111.189453125 c 4
 703.307617188 222.232421875 702.446289062 350.858398438 707.680664062 465.501953125 c 4
 713.376953125 590.254882812 709.185546875 704.272460938 676.970703125 804.272460938 c 4
 672.481445312 818.205078125 653.998046875 829.602539062 648.672851562 842.982421875 c 4
 642.647460938 853.182617188 626.774414062 855.739257812 604.076171875 852.487304688 c 4
 576.985351562 848.60546875 546.623046875 842.8984375 533.529296875 853.875976562 c 5
 504.489257812 866.693359375 478.734375 862.545898438 466.586914062 854.856445312 c 5
EndSplineSet
Validated: 41
EndChar
